<svg version="1.1" id="Layer_1" xmlns="http://www.w3.org/2000/svg" xmlns:xlink="http://www.w3.org/1999/xlink" x="0px" y="0px"
	 width="100%" viewBox="0 0 300 200" enable-background="new 0 0 300 200" xml:space="preserve">
<path fill="#000000" opacity="1.000000" stroke="none" 
	d="
M211.000000,201.000000 
	C140.666672,201.000000 70.833351,201.000000 1.000019,201.000000 
	C1.000013,134.333344 1.000013,67.666702 1.000006,1.000037 
	C100.999969,1.000024 200.999939,1.000024 300.999939,1.000012 
	C300.999939,67.666634 300.999939,134.333267 300.999969,200.999939 
	C271.166656,201.000000 241.333328,201.000000 211.000000,201.000000 
M212.059647,59.316940 
	C211.746155,58.518131 211.432663,57.719326 210.760437,56.350334 
	C206.496017,51.809719 201.739792,48.229149 195.160858,47.910522 
	C190.259216,47.673130 185.368973,47.194534 180.466888,46.974060 
	C177.309769,46.832062 174.140381,46.962910 170.217026,46.922565 
	C168.486481,46.646900 166.755951,46.371231 164.152145,46.014919 
	C162.118042,46.036304 160.083954,46.057690 157.211273,46.019123 
	C147.012619,46.499184 144.171295,49.289711 141.427063,61.492882 
	C141.465134,63.079021 141.212112,64.739296 141.593796,66.237923 
	C142.939484,71.521637 144.502838,76.749916 145.991623,82.901077 
	C145.991928,85.191689 145.811462,87.499840 146.031693,89.769104 
	C146.440216,93.978500 149.523422,96.703773 153.741455,96.241043 
	C155.494583,96.483643 157.247711,96.726242 159.078278,97.737953 
	C161.872894,105.104897 161.764786,113.505920 167.108154,120.752815 
	C168.401520,125.168167 169.694870,129.583511 171.022003,134.735764 
	C169.347031,136.827164 167.672058,138.918549 165.378693,141.348236 
	C165.304001,142.510056 165.229294,143.671875 165.006866,145.709641 
	C165.078217,146.885788 165.149551,148.061951 165.179413,150.000351 
	C164.735764,151.899872 164.292114,153.799377 163.460754,155.949112 
	C163.460754,155.949112 163.065598,156.187378 162.540359,156.108795 
	C162.424759,156.404800 162.309143,156.700806 162.124512,157.747513 
	C163.159790,161.253296 163.215134,165.750916 168.266556,165.889343 
	C170.521133,165.951126 172.812164,164.682541 175.944122,164.020050 
	C181.128494,163.861374 186.312851,163.702713 192.247849,163.574081 
	C193.788986,163.133682 195.330124,162.693298 197.766846,162.550186 
	C204.451859,162.025894 211.196259,161.876190 217.798386,160.829208 
	C221.442017,160.251389 220.254944,157.888397 218.805206,156.014862 
	C219.482574,154.050613 220.159958,152.086365 220.774826,149.412567 
	C218.817139,144.989380 216.859451,140.566193 215.235336,135.434097 
	C216.410294,132.016174 216.920593,128.878098 212.148834,127.234726 
	C211.073196,122.136528 209.997559,117.038338 208.922653,111.231941 
	C206.076736,105.455940 200.798477,100.449837 203.684326,92.618156 
	C206.450760,88.131866 209.436371,83.758415 211.841690,79.086227 
	C212.509033,77.789955 211.454529,75.607239 211.150772,73.527229 
	C211.150772,73.527229 211.106506,73.223938 211.171127,72.611374 
	C211.173141,72.406059 211.175171,72.200752 211.584015,72.048027 
	C211.584015,72.048027 211.993896,72.032379 212.486221,71.747421 
	C212.664200,71.225632 212.842163,70.703842 213.652725,69.722794 
	C213.409302,67.509201 213.165894,65.295616 212.949509,62.417656 
	C212.628983,61.609730 212.308441,60.801800 212.059647,59.316940 
z"/>
<path fill="#242329" opacity="1.000000" stroke="none" 
	d="
M159.000839,96.968842 
	C157.247711,96.726242 155.494583,96.483643 153.394531,95.868835 
	C153.699265,94.625839 154.350922,93.755066 155.145050,92.715790 
	C155.759933,92.312920 156.232376,92.078560 156.704803,91.844193 
	C156.380264,91.552887 156.055725,91.261581 155.985703,90.720688 
	C157.161072,90.365211 158.081909,90.259331 159.002106,90.510544 
	C158.998901,91.581833 158.996368,92.296028 158.797150,93.130676 
	C158.613556,93.584221 158.626633,93.917297 158.639709,94.250381 
	C158.757172,93.835838 158.874649,93.421303 159.305817,92.871323 
	C164.381699,93.208244 167.540863,90.758469 170.380432,86.865433 
	C172.503006,86.458374 174.244705,86.071365 175.995560,86.024101 
	C179.660858,85.925163 183.331009,86.005203 187.053131,86.318039 
	C191.280502,86.742340 193.896378,85.193214 195.587433,81.977631 
	C198.032852,83.551224 200.231659,84.895508 202.430466,86.239784 
	C202.170959,86.855904 202.981781,85.911690 203.555267,84.840424 
	C205.116501,81.924088 206.577377,78.954033 208.395996,75.951553 
	C209.539322,75.208977 210.364655,74.520096 211.189972,73.831215 
	C211.454529,75.607239 212.509033,77.789955 211.841690,79.086227 
	C209.436371,83.758415 206.450760,88.131866 203.122589,92.931259 
	C201.031952,93.816612 199.503052,94.388870 198.028152,94.614822 
	C199.799454,88.626358 193.909576,91.943413 192.941635,89.157326 
	C192.107300,90.728073 191.553558,91.770546 191.430771,92.001717 
	C185.624054,91.668953 180.513824,91.251907 175.398727,91.179771 
	C174.272568,91.163887 173.129166,92.372086 171.603012,93.012833 
	C167.467407,93.996773 163.722473,94.984482 159.763092,96.082428 
	C159.279953,96.390633 159.097366,96.649368 159.000839,96.968842 
z"/>
<path fill="#27180C" opacity="1.000000" stroke="none" 
	d="
M145.983627,81.999214 
	C144.502838,76.749916 142.939484,71.521637 141.593796,66.237923 
	C141.212112,64.739296 141.465134,63.079021 141.922958,61.513786 
	C144.393005,62.444180 146.509705,64.804298 148.324600,61.023911 
	C149.237900,62.016125 149.845764,62.968834 150.105667,63.376183 
	C152.958710,62.216179 155.490128,61.186943 158.340271,60.159157 
	C159.426483,60.500313 160.193970,60.840008 161.036346,61.541573 
	C161.747452,65.559029 162.383682,69.214630 163.002182,73.152328 
	C162.982193,73.622864 162.979935,73.811287 162.675873,74.157112 
	C159.767273,75.870247 157.260422,77.639107 154.525528,78.921684 
	C151.797180,80.201195 148.840317,80.993378 145.983627,81.999214 
M149.081223,70.499451 
	C149.447418,72.155006 149.550644,75.092178 150.228043,75.231171 
	C152.459839,75.689117 155.132706,75.656387 157.161972,74.750183 
	C158.193192,74.289680 158.209198,71.555794 158.684128,69.849609 
	C156.745041,69.525291 154.812653,69.020615 152.864227,68.948463 
	C151.800415,68.909058 150.709488,69.602097 149.081223,70.499451 
z"/>
<path fill="#121111" opacity="1.000000" stroke="none" 
	d="
M159.039551,97.353394 
	C159.097366,96.649368 159.279953,96.390633 159.825836,96.400528 
	C164.479599,97.522560 169.804703,96.342247 172.068268,102.318314 
	C174.281204,103.744911 176.123093,104.655006 176.320847,107.874763 
	C176.550781,111.618225 178.076218,115.282120 178.678131,118.947235 
	C172.889557,118.660400 175.568558,113.774651 174.140976,111.027489 
	C171.901550,111.585693 169.883163,112.088814 168.436249,112.449478 
	C167.899139,115.291145 167.454102,117.645660 167.009079,120.000183 
	C161.764786,113.505920 161.872894,105.104897 159.039551,97.353394 
z"/>
<path fill="#191816" opacity="1.000000" stroke="none" 
	d="
M145.987625,82.450150 
	C148.840317,80.993378 151.797180,80.201195 154.525528,78.921684 
	C157.260422,77.639107 159.767273,75.870247 162.967148,74.164101 
	C163.754089,74.004723 163.947937,73.995766 164.446320,73.981628 
	C165.156479,73.977585 165.562119,73.978714 165.959625,74.374649 
	C165.304993,77.507950 164.658539,80.246437 163.648773,83.022324 
	C161.546921,84.361351 159.808411,85.662979 157.814240,86.976425 
	C157.387939,86.990242 157.217316,86.992226 156.810913,87.107910 
	C156.404190,87.517418 156.233261,87.813217 155.720428,88.140015 
	C154.921173,88.185944 154.463821,88.200874 153.996536,87.859993 
	C153.684067,86.803459 153.381531,86.102730 153.078979,85.402008 
	C152.753571,85.513794 152.428146,85.625572 152.102722,85.737358 
	C152.411758,86.827293 152.720779,87.917236 153.030991,89.307663 
	C153.358521,90.071266 153.684891,90.534378 154.016113,91.288879 
	C154.348160,92.014938 154.675369,92.449615 155.002579,92.884293 
	C154.350922,93.755066 153.699265,94.625839 153.017441,95.838081 
	C149.523422,96.703773 146.440216,93.978500 146.031693,89.769104 
	C145.811462,87.499840 145.991928,85.191689 145.987625,82.450150 
M163.594437,76.511505 
	C163.594437,76.511505 163.483475,76.579399 163.594437,76.511505 
z"/>
<path fill="#233C55" opacity="1.000000" stroke="none" 
	d="
M165.025406,46.095566 
	C166.755951,46.371231 168.486481,46.646900 170.959595,47.110962 
	C174.887177,47.785580 178.060699,48.373646 181.259888,48.733719 
	C185.849716,49.250313 190.458267,49.600616 195.092270,50.346756 
	C195.432831,53.109032 195.739944,55.546467 195.985291,58.317360 
	C194.617401,59.781681 193.311264,60.912548 191.603455,62.033684 
	C190.130966,62.020039 189.060165,62.016129 187.947205,61.660816 
	C185.899567,57.855766 183.826080,54.497383 178.966461,54.650246 
	C178.265457,53.895782 177.618317,53.456718 176.733490,53.011337 
	C176.495804,53.005016 176.020584,52.987148 175.967102,52.611271 
	C175.051300,48.024254 171.707825,49.154373 168.614044,49.014118 
	C167.189407,48.702370 166.109573,48.381210 165.021194,47.732361 
	C165.016907,46.968304 165.021149,46.531933 165.025406,46.095566 
z"/>
<path fill="#181D27" opacity="1.000000" stroke="none" 
	d="
M211.170380,73.679222 
	C210.364655,74.520096 209.539322,75.208977 208.239166,75.633438 
	C207.308655,74.066635 206.852951,72.764252 205.941391,70.158989 
	C203.083069,73.005463 200.870880,75.208481 198.204346,77.863960 
	C196.653458,73.972473 194.870926,69.499733 193.375504,65.060394 
	C194.443100,65.080093 195.251083,65.189507 195.997360,65.022705 
	C197.015472,64.795143 197.986557,64.357101 199.297272,63.880039 
	C200.653687,62.790436 201.539413,61.392567 202.762192,60.969948 
	C204.706375,60.298004 206.875427,60.276611 208.870987,60.238705 
	C208.729431,60.666073 208.666229,60.834789 208.476776,61.120430 
	C208.144363,61.497478 208.014023,61.792084 207.632080,62.403854 
	C206.770691,64.907478 206.236740,67.128418 205.612244,69.725914 
	C208.098770,69.887901 209.555023,69.982765 211.126373,70.325249 
	C211.492279,71.059372 211.743088,71.545868 211.993896,72.032379 
	C211.993896,72.032379 211.584015,72.048027 211.051987,72.021042 
	C209.950027,72.094177 209.380081,72.194290 207.362686,72.548683 
	C209.570404,72.946877 210.338455,73.085403 211.106506,73.223938 
	C211.106506,73.223938 211.150772,73.527229 211.170380,73.679222 
M198.421967,67.482460 
	C198.421967,67.482460 198.520157,67.425987 198.421967,67.482460 
z"/>
<path fill="#393F4C" opacity="1.000000" stroke="none" 
	d="
M208.949356,59.980049 
	C206.875427,60.276611 204.706375,60.298004 202.762192,60.969948 
	C201.539413,61.392567 200.653687,62.790436 199.307648,63.534645 
	C198.998566,62.533215 198.998566,61.747929 198.998566,60.568680 
	C196.704544,61.488083 194.815414,62.245213 192.726944,62.890629 
	C192.280884,62.585304 192.106720,62.340137 192.005142,62.043419 
	C193.311264,60.912548 194.617401,59.781681 196.358047,58.305969 
	C197.874603,56.635300 198.956635,55.309479 200.226273,53.753792 
	C200.444656,53.961357 201.036484,54.523876 201.628311,55.086391 
	C201.923752,54.703075 202.219177,54.319759 202.514618,53.936443 
	C201.385178,50.871460 198.081818,50.628677 195.058823,50.021919 
	C190.458267,49.600616 185.849716,49.250313 181.259888,48.733719 
	C178.060699,48.373646 174.887177,47.785580 171.339340,47.135414 
	C174.140381,46.962910 177.309769,46.832062 180.466888,46.974060 
	C185.368973,47.194534 190.259216,47.673130 195.160858,47.910522 
	C201.739792,48.229149 206.496017,51.809719 210.659485,56.847054 
	C210.388092,58.244972 210.217667,59.146172 210.036530,60.026241 
	C210.025848,60.005116 210.031357,60.046909 209.761414,60.021332 
	C209.310760,59.990520 209.130066,59.985287 208.949356,59.980049 
M204.243301,55.183498 
	C204.411331,55.127708 204.579376,55.071918 204.747406,55.016136 
	C204.577026,54.960453 204.406662,54.904766 204.243301,55.183498 
M203.584793,57.509007 
	C203.584793,57.509007 203.466537,57.582390 203.584793,57.509007 
z"/>
<path fill="#121318" opacity="1.000000" stroke="none" 
	d="
M167.058624,120.376495 
	C167.454102,117.645660 167.899139,115.291145 168.436249,112.449478 
	C169.883163,112.088814 171.901550,111.585693 174.140976,111.027489 
	C175.568558,113.774651 172.889557,118.660400 178.961761,119.097748 
	C180.060547,120.196007 180.514435,121.110435 180.595673,122.061172 
	C177.956665,123.481346 174.419586,124.412613 173.727051,126.357018 
	C172.731766,129.151474 173.807907,132.683685 173.684799,135.886154 
	C172.575897,135.247162 171.782074,134.623016 170.988220,133.998856 
	C169.694870,129.583511 168.401520,125.168167 167.058624,120.376495 
z"/>
<path fill="#F3F1F4" opacity="1.000000" stroke="none" 
	d="
M220.837341,150.122101 
	C220.159958,152.086365 219.482574,154.050613 218.150787,155.967499 
	C215.995117,156.199310 214.493881,156.478485 212.751785,156.486481 
	C209.058685,156.738297 205.606430,157.261292 201.811066,157.814240 
	C201.028061,157.975769 200.588181,158.107315 199.792938,158.291687 
	C196.546143,160.169067 195.388275,158.410034 194.379562,155.779984 
	C194.168915,155.230652 194.132736,154.883377 194.408173,154.442932 
	C195.187286,153.944016 195.654800,153.538269 196.557007,153.099030 
	C200.374008,152.376480 203.756348,151.687424 207.516785,151.041809 
	C209.289734,149.979309 210.684570,148.873352 212.462677,147.846893 
	C215.509750,148.658279 218.173538,149.390198 220.837341,150.122101 
z"/>
<path fill="#242329" opacity="1.000000" stroke="none" 
	d="
M208.921921,111.940147 
	C209.997559,117.038338 211.073196,122.136528 211.818390,127.487259 
	C210.593430,127.123985 209.698914,126.508179 208.809067,125.553032 
	C204.366562,122.320518 203.593933,118.375275 205.866440,113.754364 
	C197.208191,111.518875 195.966873,110.106613 195.507568,101.900223 
	C196.640305,102.467323 197.845764,102.847733 198.108459,103.570694 
	C199.969101,108.691467 204.518188,110.194565 208.921921,111.940147 
z"/>
<path fill="#121318" opacity="1.000000" stroke="none" 
	d="
M148.019150,60.984406 
	C146.509705,64.804298 144.393005,62.444180 142.202362,61.253494 
	C144.171295,49.289711 147.012619,46.499184 157.563171,46.391907 
	C154.616425,51.504597 151.317795,56.244499 148.019150,60.984406 
z"/>
<path fill="#181D27" opacity="1.000000" stroke="none" 
	d="
M208.804413,125.892380 
	C209.698914,126.508179 210.593430,127.123985 211.793427,127.862411 
	C216.920593,128.878098 216.410294,132.016174 214.782974,135.760193 
	C213.885056,136.380539 213.439499,136.674789 212.548492,136.973633 
	C209.734650,136.916061 207.366257,136.853912 204.963913,136.485779 
	C203.324677,135.836349 201.719376,135.492920 200.080841,134.768036 
	C200.380127,132.935715 200.712631,131.484848 201.345154,129.893738 
	C205.170593,130.578384 206.780029,127.850693 208.804413,125.892380 
z"/>
<path fill="#393F4C" opacity="1.000000" stroke="none" 
	d="
M208.922287,111.586044 
	C204.518188,110.194565 199.969101,108.691467 198.108459,103.570694 
	C197.845764,102.847733 196.640305,102.467323 195.310806,101.680191 
	C194.146881,99.426788 195.878677,95.950676 197.974167,94.961136 
	C199.503052,94.388870 201.031952,93.816612 202.860367,93.134972 
	C200.798477,100.449837 206.076736,105.455940 208.922287,111.586044 
z"/>
<path fill="#393F4C" opacity="1.000000" stroke="none" 
	d="
M171.005127,134.367310 
	C171.782074,134.623016 172.575897,135.247162 173.707275,136.032745 
	C174.044800,136.194183 174.046738,136.489868 173.766052,136.684677 
	C172.683395,137.932953 171.881424,138.986420 170.990662,140.461288 
	C171.286865,143.578995 171.671875,146.275314 172.057297,149.323074 
	C172.730118,150.057678 173.402512,150.440826 174.356598,150.817947 
	C175.156082,150.616028 175.673874,150.420135 176.548538,150.227936 
	C177.617203,150.183548 178.328964,150.135468 179.005173,150.412323 
	C178.620117,151.535080 178.270615,152.332932 177.502350,153.075180 
	C174.376541,153.896759 171.669510,154.773941 168.822144,155.304138 
	C167.528183,153.050812 166.374542,151.144455 165.220901,149.238098 
	C165.149551,148.061951 165.078217,146.885788 165.305206,145.030426 
	C165.734711,143.237457 165.865891,142.123688 165.997086,141.009933 
	C167.672058,138.918549 169.347031,136.827164 171.005127,134.367310 
z"/>
<path fill="#BDBDC0" opacity="1.000000" stroke="none" 
	d="
M168.962463,155.651108 
	C171.669510,154.773941 174.376541,153.896759 177.588165,153.300690 
	C178.285767,153.859833 178.547409,154.035950 178.898773,154.485672 
	C179.818024,155.988495 180.716187,157.115768 181.516144,158.344299 
	C181.417938,158.445572 181.154327,158.546082 180.931000,158.406448 
	C180.436905,158.469788 180.166107,158.672745 179.597809,159.025970 
	C178.223969,160.148560 177.147629,161.120880 175.629272,162.055328 
	C173.720016,161.972076 172.042465,162.368896 170.828232,161.791473 
	C168.102859,160.495438 163.822739,161.539291 163.117279,156.809265 
	C163.143417,156.600632 163.065598,156.187378 163.065598,156.187378 
	C163.065598,156.187378 163.460754,155.949112 163.946182,155.961044 
	C165.183197,156.669189 165.934784,157.365417 166.520462,157.907959 
	C167.386612,157.107483 168.174545,156.379303 168.962463,155.651108 
z"/>
<path fill="#123A45" opacity="1.000000" stroke="none" 
	d="
M148.324600,61.023911 
	C151.317795,56.244499 154.616425,51.504597 157.982452,46.421883 
	C160.083954,46.057690 162.118042,46.036304 164.588776,46.055244 
	C165.021149,46.531933 165.016907,46.968304 164.701385,47.897118 
	C162.987885,50.553493 161.586197,52.298553 158.453735,52.347923 
	C157.279602,52.366428 155.458115,54.798119 155.222778,56.328136 
	C155.052536,57.434982 157.011917,58.869381 158.021561,60.157703 
	C155.490128,61.186943 152.958710,62.216179 150.105667,63.376183 
	C149.845764,62.968834 149.237900,62.016125 148.324600,61.023911 
z"/>
<path fill="#1F2631" opacity="1.000000" stroke="none" 
	d="
M176.071274,162.093201 
	C177.147629,161.120880 178.223969,160.148560 179.828033,159.064896 
	C180.690781,158.952499 180.956985,158.816666 181.154327,158.546082 
	C181.154327,158.546082 181.417938,158.445572 181.796387,158.258606 
	C184.136169,157.383835 186.097488,156.696014 188.144775,156.349228 
	C189.319580,158.974854 190.408401,161.259445 191.497223,163.544037 
	C186.312851,163.702713 181.128494,163.861374 175.569061,163.748978 
	C175.486435,163.016342 175.778854,162.554764 176.071274,162.093201 
z"/>
<path fill="#7D818C" opacity="1.000000" stroke="none" 
	d="
M212.992630,156.757660 
	C214.493881,156.478485 215.995117,156.199310 217.806427,156.029877 
	C220.254944,157.888397 221.442017,160.251389 217.798386,160.829208 
	C211.196259,161.876190 204.451859,162.025894 197.317261,162.122421 
	C197.411209,161.383316 198.009552,160.737427 198.489197,160.816025 
	C201.195633,161.259445 201.144562,160.091202 200.148285,158.238876 
	C200.588181,158.107315 201.028061,157.975769 201.831635,158.176025 
	C206.687454,163.433914 209.537796,158.231140 212.992630,156.757660 
z"/>
<path fill="#7D818C" opacity="1.000000" stroke="none" 
	d="
M212.993958,136.969055 
	C213.439499,136.674789 213.885056,136.380539 214.616180,136.114639 
	C216.859451,140.566193 218.817139,144.989380 220.806076,149.767334 
	C218.173538,149.390198 215.509750,148.658279 212.459991,147.528915 
	C211.927338,144.770828 211.780655,142.410172 211.633972,140.049530 
	C211.243149,140.061981 210.852341,140.074448 210.461517,140.086914 
	C211.305664,139.047623 212.149811,138.008347 212.993958,136.969055 
z"/>
<path fill="#9DA1AF" opacity="1.000000" stroke="none" 
	d="
M199.792938,158.291687 
	C201.144562,160.091202 201.195633,161.259445 198.489197,160.816025 
	C198.009552,160.737427 197.411209,161.383316 196.869476,161.973785 
	C195.330124,162.693298 193.788986,163.133682 191.872528,163.559052 
	C190.408401,161.259445 189.319580,158.974854 188.604294,156.320831 
	C190.836578,155.961624 192.695297,155.971817 194.554031,155.982025 
	C195.388275,158.410034 196.546143,160.169067 199.792938,158.291687 
z"/>
<path fill="#7D818C" opacity="1.000000" stroke="none" 
	d="
M175.629272,162.055328 
	C175.778854,162.554764 175.486435,163.016342 175.140335,163.747803 
	C172.812164,164.682541 170.521133,165.951126 168.266556,165.889343 
	C163.215134,165.750916 163.159790,161.253296 162.383484,157.373840 
	C162.642456,157.000153 163.091156,157.017899 163.091156,157.017899 
	C163.822739,161.539291 168.102859,160.495438 170.828232,161.791473 
	C172.042465,162.368896 173.720016,161.972076 175.629272,162.055328 
z"/>
<path fill="#404A5B" opacity="1.000000" stroke="none" 
	d="
M211.011276,70.077629 
	C209.555023,69.982765 208.098770,69.887901 205.612244,69.725914 
	C206.236740,67.128418 206.770691,64.907478 207.887268,62.692722 
	C209.954071,62.826611 211.438278,62.954319 212.922470,63.082027 
	C213.165894,65.295616 213.409302,67.509201 213.308929,69.572853 
	C212.877289,68.217049 212.789429,67.011185 212.701569,65.805328 
	C212.355255,65.799713 212.008926,65.794106 211.662598,65.788498 
	C211.445496,67.218208 211.228378,68.647919 211.011276,70.077629 
z"/>
<path fill="#627387" opacity="1.000000" stroke="none" 
	d="
M168.822144,155.304138 
	C168.174545,156.379303 167.386612,157.107483 166.520462,157.907959 
	C165.934784,157.365417 165.183197,156.669189 164.140045,155.835938 
	C164.292114,153.799377 164.735764,151.899872 165.200165,149.619232 
	C166.374542,151.144455 167.528183,153.050812 168.822144,155.304138 
z"/>
<path fill="#1F2631" opacity="1.000000" stroke="none" 
	d="
M212.935989,62.749840 
	C211.438278,62.954319 209.954071,62.826611 208.214691,62.410034 
	C208.014023,61.792084 208.144363,61.497478 208.787384,61.070587 
	C209.493271,60.618187 209.762314,60.332550 210.031357,60.046913 
	C210.031357,60.046909 210.025848,60.005116 210.360153,60.025726 
	C211.125610,60.028843 211.556763,60.011353 211.987915,59.993866 
	C212.308441,60.801800 212.628983,61.609730 212.935989,62.749840 
z"/>
<path fill="#242329" opacity="1.000000" stroke="none" 
	d="
M211.126373,70.325249 
	C211.228378,68.647919 211.445496,67.218208 211.662598,65.788498 
	C212.008926,65.794106 212.355255,65.799713 212.701569,65.805328 
	C212.789429,67.011185 212.877289,68.217049 212.992645,69.802483 
	C212.842163,70.703842 212.664200,71.225632 212.240067,71.889893 
	C211.743088,71.545868 211.492279,71.059372 211.126373,70.325249 
z"/>
<path fill="#404A5B" opacity="1.000000" stroke="none" 
	d="
M212.023773,59.655403 
	C211.556763,60.011353 211.125610,60.028843 210.370850,60.046852 
	C210.217667,59.146172 210.388092,58.244972 210.838852,57.132149 
	C211.432663,57.719326 211.746155,58.518131 212.023773,59.655403 
z"/>
<path fill="#627387" opacity="1.000000" stroke="none" 
	d="
M165.687897,141.179077 
	C165.865891,142.123688 165.734711,143.237457 165.379059,144.592453 
	C165.229294,143.671875 165.304001,142.510056 165.687897,141.179077 
z"/>
<path fill="#404A5B" opacity="1.000000" stroke="none" 
	d="
M211.138824,72.917656 
	C210.338455,73.085403 209.570404,72.946877 207.362686,72.548683 
	C209.380081,72.194290 209.950027,72.094177 210.848587,71.994751 
	C211.175171,72.200752 211.173141,72.406059 211.138824,72.917656 
z"/>
<path fill="#627387" opacity="1.000000" stroke="none" 
	d="
M163.117279,156.809265 
	C163.091156,157.017899 162.642456,157.000153 162.417999,156.998474 
	C162.309143,156.700806 162.424759,156.404800 162.802979,156.148087 
	C163.065598,156.187378 163.143417,156.600632 163.117279,156.809265 
z"/>
<path fill="#121111" opacity="1.000000" stroke="none" 
	d="
M198.028152,94.614822 
	C195.878677,95.950676 194.146881,99.426788 194.947159,101.652054 
	C195.966873,110.106613 197.208191,111.518875 205.866440,113.754364 
	C203.593933,118.375275 204.366562,122.320518 208.809067,125.553032 
	C206.780029,127.850693 205.170593,130.578384 201.330612,129.497314 
	C197.605316,122.944839 194.286133,116.596474 190.748230,110.372452 
	C188.741409,106.841972 185.527435,103.770920 184.399948,100.028183 
	C183.158249,95.906342 181.156128,94.683823 177.342926,94.984695 
	C175.907928,95.097923 174.455795,94.993904 172.898239,94.734863 
	C172.521240,93.992744 172.257477,93.504669 171.993713,93.016602 
	C173.129166,92.372086 174.272568,91.163887 175.398727,91.179771 
	C180.513824,91.251907 185.624054,91.668953 191.430771,92.001717 
	C191.553558,91.770546 192.107300,90.728073 192.941635,89.157326 
	C193.909576,91.943413 199.799454,88.626358 198.028152,94.614822 
z"/>
<path fill="#040404" opacity="1.000000" stroke="none" 
	d="
M164.012085,82.984909 
	C164.658539,80.246437 165.304993,77.507950 166.312851,74.224136 
	C171.222305,73.276138 173.788361,71.163620 173.198425,65.948334 
	C173.653748,64.920692 174.004059,64.182594 174.767685,63.590256 
	C175.460419,63.821381 175.739838,63.906754 176.056213,64.342285 
	C177.449966,66.085373 178.599228,67.809067 180.199875,68.813347 
	C186.754150,72.925659 186.324982,79.658417 186.999161,86.011734 
	C183.331009,86.005203 179.660858,85.925163 175.995560,86.024101 
	C174.244705,86.071365 172.503006,86.458374 170.171341,86.826111 
	C169.585510,86.960709 169.165176,86.896255 168.981171,86.585709 
	C167.202133,85.178421 165.607101,84.081665 164.012085,82.984909 
M179.082794,78.805962 
	C179.967896,79.580330 180.852997,80.354698 181.738113,81.129066 
	C182.113297,80.479652 182.488480,79.830246 182.863663,79.180832 
	C181.642319,78.827248 180.420975,78.473656 179.082794,78.805962 
M173.354507,80.563560 
	C177.066681,83.177895 175.814362,79.818146 176.660217,78.983269 
	C176.345505,78.623238 176.030807,78.263206 175.716095,77.903175 
	C175.003815,78.577065 174.291519,79.250954 173.354507,80.563560 
z"/>
<path fill="#404A5B" opacity="1.000000" stroke="none" 
	d="
M191.603455,62.033680 
	C192.106720,62.340137 192.280884,62.585304 192.751114,63.228203 
	C193.012558,64.127319 193.050476,64.577156 193.088394,65.026993 
	C194.870926,69.499733 196.653458,73.972473 198.204346,77.863960 
	C200.870880,75.208481 203.083069,73.005463 205.941391,70.158989 
	C206.852951,72.764252 207.308655,74.066635 207.921188,75.687141 
	C206.577377,78.954033 205.116501,81.924088 203.555267,84.840424 
	C202.981781,85.911690 202.170959,86.855904 202.430466,86.239784 
	C200.231659,84.895508 198.032852,83.551224 195.488388,81.620674 
	C192.431732,76.354736 189.720764,71.675072 186.964844,66.682533 
	C186.260513,65.586121 185.601151,64.802574 185.171234,63.902710 
	C185.601257,63.514202 185.801849,63.242012 186.289078,62.934383 
	C187.046936,62.603371 187.518143,62.307793 187.989365,62.012222 
	C189.060165,62.016129 190.130966,62.020039 191.603455,62.033680 
z"/>
<path fill="#121318" opacity="1.000000" stroke="none" 
	d="
M187.009796,66.995399 
	C189.720764,71.675072 192.431732,76.354736 195.241760,81.391357 
	C193.896378,85.193214 191.280502,86.742340 187.053131,86.318039 
	C186.324982,79.658417 186.754150,72.925659 180.199875,68.813347 
	C178.599228,67.809067 177.449966,66.085373 176.429977,64.391663 
	C180.181122,65.059059 183.595459,66.027229 187.009796,66.995399 
z"/>
<path fill="#040404" opacity="1.000000" stroke="none" 
	d="
M171.603027,93.012825 
	C172.257477,93.504669 172.521240,93.992744 172.647766,94.951355 
	C172.947571,96.648186 173.349884,97.888260 173.829773,99.097557 
	C174.549332,100.910759 174.644302,102.283760 172.028717,102.009369 
	C169.804703,96.342247 164.479599,97.522560 160.040298,96.290298 
	C163.722473,94.984482 167.467407,93.996773 171.603027,93.012825 
z"/>
<path fill="#1F2631" opacity="1.000000" stroke="none" 
	d="
M169.165176,86.896255 
	C169.165176,86.896255 169.585510,86.960709 169.794601,87.000031 
	C167.540863,90.758469 164.381699,93.208244 159.309753,92.867950 
	C159.000000,93.000023 158.993820,93.010223 158.993820,93.010223 
	C158.996368,92.296028 158.998901,91.581833 159.315948,90.429565 
	C160.072083,89.344032 160.513702,88.696571 161.254532,88.031281 
	C161.753235,88.005486 161.952759,87.997505 162.506317,87.998978 
	C164.961975,87.637703 167.063568,87.266983 169.165176,86.896255 
z"/>
<path fill="#404A5B" opacity="1.000000" stroke="none" 
	d="
M160.955338,88.049103 
	C160.513702,88.696571 160.072083,89.344032 159.316620,90.072472 
	C158.081909,90.259331 157.161072,90.365211 155.702484,90.718842 
	C154.780258,90.976883 154.395752,90.987183 154.011261,90.997482 
	C153.684891,90.534378 153.358521,90.071266 153.231293,89.225090 
	C153.691269,88.696579 153.883286,88.487839 154.006470,88.215805 
	C154.463821,88.200874 154.921173,88.185944 155.940811,88.130722 
	C156.503098,88.090439 156.944122,88.057083 157.345917,88.060120 
	C158.816910,88.058479 159.886124,88.053795 160.955338,88.049103 
z"/>
<path fill="#393F4C" opacity="1.000000" stroke="none" 
	d="
M154.016113,91.288872 
	C154.395752,90.987183 154.780258,90.976883 155.447968,90.968430 
	C156.055725,91.261581 156.380264,91.552887 156.704803,91.844193 
	C156.232376,92.078560 155.759933,92.312920 155.145050,92.715782 
	C154.675369,92.449615 154.348160,92.014938 154.016113,91.288872 
z"/>
<path fill="#191816" opacity="1.000000" stroke="none" 
	d="
M158.996063,93.003395 
	C158.874649,93.421303 158.757172,93.835838 158.639709,94.250381 
	C158.626633,93.917297 158.613556,93.584221 158.797150,93.130676 
	C158.993820,93.010223 159.000000,93.000023 158.996063,93.003395 
z"/>
<path fill="#2F6072" opacity="1.000000" stroke="none" 
	d="
M158.340271,60.159157 
	C157.011917,58.869381 155.052536,57.434982 155.222778,56.328136 
	C155.458115,54.798119 157.279602,52.366428 158.453735,52.347923 
	C161.586197,52.298553 162.987885,50.553493 164.709900,48.224808 
	C166.109573,48.381210 167.189407,48.702370 168.618927,49.439178 
	C169.705246,53.133862 170.441910,56.412891 170.883469,59.879166 
	C169.745529,60.396496 168.902695,60.726578 167.725220,60.891739 
	C165.247559,60.877785 163.104523,61.028751 160.961472,61.179710 
	C160.193970,60.840008 159.426483,60.500313 158.340271,60.159157 
z"/>
<path fill="#1F2631" opacity="1.000000" stroke="none" 
	d="
M161.036346,61.541573 
	C163.104523,61.028751 165.247559,60.877785 167.736908,61.251461 
	C169.753265,63.263363 171.423340,64.750626 173.093430,66.237885 
	C173.788361,71.163620 171.222305,73.276138 166.321014,73.829323 
	C165.562119,73.978714 165.156479,73.977585 164.300797,73.755608 
	C163.573807,73.313248 163.296860,73.091736 163.019897,72.870224 
	C162.383682,69.214630 161.747452,65.559029 161.036346,61.541573 
z"/>
<path fill="#5B1B0C" opacity="1.000000" stroke="none" 
	d="
M149.356003,70.232132 
	C150.709488,69.602097 151.800415,68.909058 152.864227,68.948463 
	C154.812653,69.020615 156.745041,69.525291 158.684128,69.849609 
	C158.209198,71.555794 158.193192,74.289680 157.161972,74.750183 
	C155.132706,75.656387 152.459839,75.689117 150.228043,75.231171 
	C149.550644,75.092178 149.447418,72.155006 149.356003,70.232132 
z"/>
<path fill="#040404" opacity="1.000000" stroke="none" 
	d="
M163.002182,73.152328 
	C163.296860,73.091736 163.573807,73.313248 163.996277,73.760780 
	C163.947937,73.995766 163.754089,74.004723 163.268951,74.006691 
	C162.979935,73.811287 162.982193,73.622864 163.002182,73.152328 
z"/>
<path fill="#000000" opacity="1.000000" stroke="none" 
	d="
M172.068268,102.318314 
	C174.644302,102.283760 174.549332,100.910759 173.829773,99.097557 
	C173.349884,97.888260 172.947571,96.648186 172.761002,95.205406 
	C174.455795,94.993904 175.907928,95.097923 177.342926,94.984695 
	C181.156128,94.683823 183.158249,95.906342 184.399948,100.028183 
	C185.527435,103.770920 188.741409,106.841972 190.748230,110.372452 
	C194.286133,116.596474 197.605316,122.944839 201.030594,129.637573 
	C200.712631,131.484848 200.380127,132.935715 199.893051,135.062271 
	C194.690018,139.897812 193.360031,146.295303 196.122330,153.132523 
	C195.654800,153.538269 195.187286,153.944016 194.328522,154.048996 
	C191.955475,152.497314 189.973709,151.246414 188.012222,149.571396 
	C187.538239,146.238403 189.218262,142.553329 185.081558,140.964111 
	C185.061340,140.990753 184.995148,141.000183 185.012314,140.654541 
	C184.725830,139.504700 184.422180,138.700500 184.060257,137.618744 
	C183.940170,136.968521 183.878342,136.595810 183.835312,135.857239 
	C182.892181,131.002533 181.930252,126.513695 180.968323,122.024857 
	C180.514435,121.110435 180.060547,120.196007 179.323029,119.131073 
	C178.076218,115.282120 176.550781,111.618225 176.320847,107.874763 
	C176.123093,104.655006 174.281204,103.744911 172.068268,102.318314 
z"/>
<path fill="#393F4C" opacity="1.000000" stroke="none" 
	d="
M168.981171,86.585709 
	C167.063568,87.266983 164.961975,87.637703 162.269653,87.715164 
	C160.475937,87.269478 159.272919,87.117043 158.069901,86.964607 
	C159.808411,85.662979 161.546921,84.361351 163.648758,83.022316 
	C165.607101,84.081665 167.202133,85.178421 168.981171,86.585709 
z"/>
<path fill="#1F2631" opacity="1.000000" stroke="none" 
	d="
M153.996536,87.859993 
	C153.883286,88.487839 153.691269,88.696579 153.230118,88.924599 
	C152.720779,87.917236 152.411758,86.827293 152.102722,85.737358 
	C152.428146,85.625572 152.753571,85.513794 153.078979,85.402008 
	C153.381531,86.102730 153.684067,86.803459 153.996536,87.859993 
z"/>
<path fill="#121111" opacity="1.000000" stroke="none" 
	d="
M157.814240,86.976425 
	C159.272919,87.117043 160.475937,87.269478 161.915619,87.705719 
	C161.952759,87.997505 161.753235,88.005486 161.254532,88.031281 
	C159.886124,88.053795 158.816910,88.058479 157.378983,87.794746 
	C157.022415,87.348961 157.034561,87.171593 157.046707,86.994217 
	C157.217316,86.992226 157.387939,86.990242 157.814240,86.976425 
z"/>
<path fill="#040404" opacity="1.000000" stroke="none" 
	d="
M163.538956,76.545456 
	C163.483475,76.579399 163.594437,76.511505 163.538956,76.545456 
z"/>
<path fill="#1F2631" opacity="1.000000" stroke="none" 
	d="
M156.810913,87.107910 
	C157.034561,87.171593 157.022415,87.348961 156.977203,87.791702 
	C156.944122,88.057083 156.503098,88.090439 156.282715,88.099731 
	C156.233261,87.813217 156.404190,87.517418 156.810913,87.107910 
z"/>
<path fill="#181D27" opacity="1.000000" stroke="none" 
	d="
M186.964844,66.682533 
	C183.595459,66.027229 180.181122,65.059059 176.393021,64.041504 
	C175.739838,63.906754 175.460419,63.821381 174.841797,63.354271 
	C174.603714,62.653172 174.740051,62.349625 175.084747,61.964245 
	C175.335831,61.761848 175.501450,61.598007 175.477249,61.562138 
	C175.338120,61.355755 175.154053,61.179672 174.905151,60.700790 
	C174.765778,59.817024 174.706482,59.225792 174.734467,58.209515 
	C175.221359,56.185360 175.620972,54.586254 176.020584,52.987148 
	C176.020584,52.987148 176.495804,53.005016 176.784302,53.329929 
	C177.721985,54.091774 178.371170,54.528709 179.020340,54.965641 
	C183.826080,54.497383 185.899567,57.855766 187.947205,61.660812 
	C187.518143,62.307793 187.046936,62.603371 186.094452,62.702770 
	C184.913925,62.555531 184.214676,62.604465 183.515427,62.653400 
	C183.990875,63.108608 184.466339,63.563820 184.941788,64.019028 
	C185.601151,64.802574 186.260513,65.586121 186.964844,66.682533 
z"/>
<path fill="#123A45" opacity="1.000000" stroke="none" 
	d="
M175.967102,52.611271 
	C175.620972,54.586254 175.221359,56.185360 174.531677,58.379097 
	C173.220596,59.213120 172.199585,59.452515 171.178558,59.691917 
	C170.441910,56.412891 169.705246,53.133862 168.963715,49.429771 
	C171.707825,49.154373 175.051300,48.024254 175.967102,52.611271 
z"/>
<path fill="#1F2631" opacity="1.000000" stroke="none" 
	d="
M195.092270,50.346756 
	C198.081818,50.628677 201.385178,50.871460 202.514618,53.936443 
	C202.219177,54.319759 201.923752,54.703075 201.628311,55.086391 
	C201.036484,54.523876 200.444656,53.961357 200.226273,53.753792 
	C198.956635,55.309479 197.874603,56.635300 196.419815,57.972511 
	C195.739944,55.546467 195.432831,53.109032 195.092270,50.346756 
z"/>
<path fill="#123A45" opacity="1.000000" stroke="none" 
	d="
M178.966461,54.650246 
	C178.371170,54.528709 177.721985,54.091774 177.022003,53.336250 
	C177.618317,53.456718 178.265457,53.895782 178.966461,54.650246 
z"/>
<path fill="#1F2631" opacity="1.000000" stroke="none" 
	d="
M193.375504,65.060394 
	C193.050476,64.577156 193.012558,64.127319 192.950455,63.339912 
	C194.815414,62.245213 196.704544,61.488083 198.998566,60.568680 
	C198.998566,61.747929 198.998566,62.533215 198.988190,63.663898 
	C197.986557,64.357101 197.015472,64.795143 195.997360,65.022705 
	C195.251083,65.189507 194.443100,65.080093 193.375504,65.060394 
z"/>
<path fill="#1F2631" opacity="1.000000" stroke="none" 
	d="
M198.471069,67.454224 
	C198.520157,67.425987 198.421967,67.482460 198.471069,67.454224 
z"/>
<path fill="#404A5B" opacity="1.000000" stroke="none" 
	d="
M209.761414,60.021332 
	C209.762314,60.332550 209.493271,60.618187 208.913635,60.953667 
	C208.666229,60.834789 208.729431,60.666073 208.870987,60.238705 
	C209.130066,59.985287 209.310760,59.990520 209.761414,60.021332 
z"/>
<path fill="#1F2631" opacity="1.000000" stroke="none" 
	d="
M204.239792,55.016289 
	C204.406662,54.904766 204.577026,54.960453 204.747406,55.016136 
	C204.579376,55.071918 204.411331,55.127708 204.239792,55.016289 
z"/>
<path fill="#1F2631" opacity="1.000000" stroke="none" 
	d="
M203.525665,57.545700 
	C203.466537,57.582390 203.584793,57.509007 203.525665,57.545700 
z"/>
<path fill="#242329" opacity="1.000000" stroke="none" 
	d="
M180.595673,122.061172 
	C181.930252,126.513695 182.892181,131.002533 183.536102,135.868195 
	C182.795685,136.817093 182.373276,137.389175 181.974594,137.965454 
	C181.998322,137.969681 181.987625,137.919464 181.664215,137.833527 
	C178.909439,137.328339 176.478088,136.909103 174.046738,136.489868 
	C174.046738,136.489868 174.044800,136.194183 174.022339,136.047577 
	C173.807907,132.683685 172.731766,129.151474 173.727051,126.357018 
	C174.419586,124.412613 177.956665,123.481346 180.595673,122.061172 
z"/>
<path fill="#9DA1AF" opacity="1.000000" stroke="none" 
	d="
M212.548508,136.973648 
	C212.149811,138.008347 211.305664,139.047623 210.461517,140.086914 
	C210.852341,140.074448 211.243149,140.061981 211.633972,140.049530 
	C211.780655,142.410172 211.927338,144.770828 212.076721,147.449432 
	C210.684570,148.873352 209.289734,149.979309 207.116577,151.079941 
	C205.554352,150.875702 204.735077,150.764221 203.992126,150.463943 
	C198.341293,148.180115 198.083954,147.047729 201.652603,142.516876 
	C203.007141,140.797104 203.896484,138.710922 204.997864,136.791748 
	C207.366257,136.853912 209.734650,136.916061 212.548508,136.973648 
z"/>
<path fill="#404A5B" opacity="1.000000" stroke="none" 
	d="
M204.963928,136.485764 
	C203.896484,138.710922 203.007141,140.797104 201.652603,142.516876 
	C198.083954,147.047729 198.341293,148.180115 203.992126,150.463943 
	C204.735077,150.764221 205.554352,150.875702 206.738464,151.036499 
	C203.756348,151.687424 200.374008,152.376480 196.557007,153.099030 
	C193.360031,146.295303 194.690018,139.897812 199.926285,135.443741 
	C201.719376,135.492920 203.324677,135.836349 204.963928,136.485764 
z"/>
<path fill="#627387" opacity="1.000000" stroke="none" 
	d="
M187.991928,149.995499 
	C189.973709,151.246414 191.955475,152.497314 194.016907,154.142151 
	C194.132736,154.883377 194.168915,155.230652 194.379562,155.779968 
	C192.695297,155.971817 190.836578,155.961624 188.518311,155.979797 
	C186.097488,156.696014 184.136169,157.383835 181.894592,158.157349 
	C180.716187,157.115768 179.818024,155.988495 179.254715,154.394836 
	C182.390350,152.617477 185.191132,151.306488 187.991928,149.995499 
z"/>
<path fill="#BDBDC0" opacity="1.000000" stroke="none" 
	d="
M212.751785,156.486481 
	C209.537796,158.231140 206.687454,163.433914 202.174744,158.146057 
	C205.606430,157.261292 209.058685,156.738297 212.751785,156.486481 
z"/>
<path fill="#7D818C" opacity="1.000000" stroke="none" 
	d="
M173.766052,136.684677 
	C176.478088,136.909103 178.909439,137.328339 181.661011,138.106674 
	C181.986557,138.647415 181.991898,138.829056 181.805527,139.146729 
	C181.914749,139.510696 182.215668,139.738602 182.666199,140.101044 
	C182.972092,140.468582 183.035950,140.724640 183.023407,141.044601 
	C183.039474,141.085464 182.995865,140.990143 183.328262,141.025879 
	C184.105484,141.041153 184.550323,141.020660 184.995148,141.000183 
	C184.995148,141.000183 185.061340,140.990753 185.071014,141.339020 
	C183.067368,144.487320 181.054062,147.287354 179.040741,150.087402 
	C178.328964,150.135468 177.617203,150.183548 176.498749,149.779556 
	C175.641342,145.573105 177.508835,140.567566 171.079468,140.039886 
	C171.881424,138.986420 172.683395,137.932953 173.766052,136.684677 
M177.690323,142.407745 
	C177.649338,143.082382 177.608337,143.757034 177.567352,144.431671 
	C177.855026,144.442368 178.142685,144.453064 178.430359,144.463760 
	C178.394592,143.779755 178.358841,143.095734 177.690323,142.407745 
M179.360565,140.520737 
	C179.360565,140.520737 179.565964,140.642883 179.565964,140.642883 
	C179.565964,140.642883 179.539108,140.398300 179.360565,140.520737 
z"/>
<path fill="#1F2631" opacity="1.000000" stroke="none" 
	d="
M179.005173,150.412323 
	C181.054062,147.287354 183.067368,144.487320 185.091232,141.312378 
	C189.218262,142.553329 187.538239,146.238403 188.012222,149.571396 
	C185.191132,151.306488 182.390350,152.617477 179.233612,154.019287 
	C178.547409,154.035950 178.285767,153.859833 178.006927,153.356293 
	C178.270615,152.332932 178.620117,151.535080 179.005173,150.412323 
z"/>
<path fill="#9DA1AF" opacity="1.000000" stroke="none" 
	d="
M170.990662,140.461288 
	C177.508835,140.567566 175.641342,145.573105 176.141846,149.775879 
	C175.673874,150.420135 175.156082,150.616028 174.276642,150.530258 
	C173.295624,149.822937 172.676254,149.397278 172.056885,148.971619 
	C171.671875,146.275314 171.286865,143.578995 170.990662,140.461288 
M172.880173,144.268845 
	C172.980301,144.267929 173.080429,144.267014 172.880173,144.268845 
M174.569687,146.506973 
	C174.569687,146.506973 174.480469,146.557526 174.569687,146.506973 
z"/>
<path fill="#7D818C" opacity="1.000000" stroke="none" 
	d="
M172.057312,149.323074 
	C172.676254,149.397278 173.295624,149.822937 173.994949,150.536285 
	C173.402512,150.440826 172.730118,150.057678 172.057312,149.323074 
z"/>
<path fill="#627387" opacity="1.000000" stroke="none" 
	d="
M180.931000,158.406448 
	C180.956985,158.816666 180.690781,158.952499 180.125534,158.914642 
	C180.166107,158.672745 180.436905,158.469788 180.931000,158.406448 
z"/>
<path fill="#627387" opacity="1.000000" stroke="none" 
	d="
M170.883484,59.879162 
	C172.199585,59.452515 173.220596,59.213120 174.444397,58.804146 
	C174.706482,59.225792 174.765778,59.817024 174.868652,60.966682 
	C174.912048,61.704037 174.911850,61.882965 174.911636,62.061897 
	C174.740051,62.349625 174.603714,62.653172 174.428497,63.208519 
	C174.004059,64.182594 173.653748,64.920692 173.198425,65.948334 
	C171.423340,64.750626 169.753265,63.263363 168.071518,61.416382 
	C168.902695,60.726578 169.745529,60.396496 170.883484,59.879162 
z"/>
<path fill="#121111" opacity="1.000000" stroke="none" 
	d="
M179.141205,78.463013 
	C180.420975,78.473656 181.642319,78.827248 182.863663,79.180832 
	C182.488480,79.830246 182.113297,80.479652 181.738113,81.129066 
	C180.852997,80.354698 179.967896,79.580330 179.141205,78.463013 
z"/>
<path fill="#121111" opacity="1.000000" stroke="none" 
	d="
M173.466873,80.244202 
	C174.291519,79.250954 175.003815,78.577065 175.716095,77.903175 
	C176.030807,78.263206 176.345505,78.623238 176.660217,78.983269 
	C175.814362,79.818146 177.066681,83.177895 173.466873,80.244202 
z"/>
<path fill="#393F4C" opacity="1.000000" stroke="none" 
	d="
M185.171234,63.902710 
	C184.466339,63.563820 183.990875,63.108608 183.515427,62.653400 
	C184.214676,62.604465 184.913925,62.555531 185.807800,62.738209 
	C185.801849,63.242012 185.601257,63.514202 185.171234,63.902710 
z"/>
<path fill="#404A5B" opacity="1.000000" stroke="none" 
	d="
M183.007355,141.003738 
	C183.035950,140.724640 182.972092,140.468582 182.534714,139.862457 
	C182.168137,139.329788 182.082672,139.170242 181.997223,139.010696 
	C181.991898,138.829056 181.986557,138.647415 181.984421,138.192627 
	C181.987625,137.919464 181.998322,137.969681 182.211487,138.059174 
	C182.989258,138.064529 183.553894,137.980408 184.118515,137.896286 
	C184.422180,138.700500 184.725830,139.504700 185.012314,140.654541 
	C184.550323,141.020660 184.105484,141.041153 183.330338,141.030548 
	C183.000015,140.999466 183.007355,141.003738 183.007355,141.003738 
z"/>
<path fill="#627387" opacity="1.000000" stroke="none" 
	d="
M184.060257,137.618744 
	C183.553894,137.980408 182.989258,138.064529 182.187744,138.054962 
	C182.373276,137.389175 182.795685,136.817093 183.517303,136.234070 
	C183.878342,136.595810 183.940170,136.968521 184.060257,137.618744 
z"/>
<path fill="#040404" opacity="1.000000" stroke="none" 
	d="
M175.084747,61.964245 
	C174.911850,61.882965 174.912048,61.704037 174.948730,61.259216 
	C175.154053,61.179672 175.338120,61.355755 175.477249,61.562138 
	C175.501450,61.598007 175.335831,61.761848 175.084747,61.964245 
z"/>
<path fill="#9DA1AF" opacity="1.000000" stroke="none" 
	d="
M178.006714,142.409729 
	C178.358841,143.095734 178.394592,143.779755 178.430359,144.463760 
	C178.142685,144.453064 177.855026,144.442368 177.567352,144.431671 
	C177.608337,143.757034 177.649338,143.082382 178.006714,142.409729 
z"/>
<path fill="#404A5B" opacity="1.000000" stroke="none" 
	d="
M182.997940,140.994812 
	C182.995865,140.990143 183.039474,141.085464 183.023407,141.044601 
	C183.007355,141.003738 183.000015,140.999466 182.997940,140.994812 
z"/>
<path fill="#9DA1AF" opacity="1.000000" stroke="none" 
	d="
M179.449829,140.459518 
	C179.539108,140.398300 179.565964,140.642883 179.565964,140.642883 
	C179.565964,140.642883 179.360565,140.520737 179.449829,140.459518 
z"/>
<path fill="#9DA1AF" opacity="1.000000" stroke="none" 
	d="
M181.805527,139.146729 
	C182.082672,139.170242 182.168137,139.329788 182.385101,139.727921 
	C182.215668,139.738602 181.914749,139.510696 181.805527,139.146729 
z"/>
<path fill="#7D818C" opacity="1.000000" stroke="none" 
	d="
M173.030365,144.267471 
	C173.080429,144.267014 172.980301,144.267929 173.030365,144.267471 
z"/>
<path fill="#7D818C" opacity="1.000000" stroke="none" 
	d="
M174.525085,146.532257 
	C174.480469,146.557526 174.569687,146.506973 174.525085,146.532257 
z"/>
</svg>