<svg version="1.1" id="Layer_1" xmlns="http://www.w3.org/2000/svg" xmlns:xlink="http://www.w3.org/1999/xlink" x="0px" y="0px"
	 width="100%" viewBox="0 0 1200 1200" enable-background="new 0 0 1200 1200" xml:space="preserve">
<path fill="#000000" opacity="1.000000" stroke="none" 
	d="
M1099.000000,1201.000000 
	C732.666687,1201.000000 366.833344,1201.000000 1.000000,1201.000000 
	C1.000000,801.000000 1.000000,401.000000 1.000000,1.000000 
	C401.000000,1.000000 801.000000,1.000000 1201.000000,1.000000 
	C1201.000000,401.000000 1201.000000,801.000000 1201.000000,1201.000000 
	C1167.166626,1201.000000 1133.333374,1201.000000 1099.000000,1201.000000 
M950.507751,613.000061 
	C956.586731,615.003418 962.693665,616.926270 968.738831,619.026978 
	C981.281433,623.385620 986.154968,638.905945 979.337219,650.359009 
	C972.949890,661.089050 953.278687,663.595276 942.253418,658.911438 
	C935.530457,656.055237 929.249695,652.096375 922.939087,648.348572 
	C916.405579,644.468445 911.217102,645.368958 907.052063,651.797791 
	C904.194519,656.208435 901.617249,660.800598 898.726929,665.624878 
	C900.877686,667.642822 902.746826,669.847473 905.030334,671.468689 
	C925.447021,685.964417 947.791931,691.834717 972.567993,685.965759 
	C985.906677,682.806030 996.484314,675.429626 1004.334045,664.196472 
	C1011.969849,653.269348 1013.720032,640.936462 1013.032288,627.969055 
	C1012.568848,619.231445 1009.529541,611.571899 1003.648132,605.210938 
	C992.148743,592.773804 976.075745,589.403503 961.034058,583.880859 
	C954.500671,581.482117 948.125732,578.287415 942.239929,574.566711 
	C930.723694,567.286560 936.660950,550.345581 945.103577,546.338196 
	C954.600769,541.830200 964.314819,540.887329 974.091003,544.694275 
	C979.881409,546.949158 985.265503,550.236206 990.872559,552.976685 
	C995.711975,555.341919 999.725647,553.984741 1002.288757,549.278564 
	C1004.509094,545.201721 1007.013000,541.250427 1008.846863,537.008179 
	C1009.462341,535.584351 1009.070557,532.670044 1008.003052,531.737427 
	C997.656433,522.698364 985.490417,517.030823 971.838379,516.207764 
	C960.805664,515.542542 949.513184,514.648682 938.728455,518.967590 
	C926.621399,523.816101 916.751770,531.073547 910.959717,543.140686 
	C905.856445,553.772705 903.899902,564.473145 906.783203,576.391235 
	C909.545105,587.807739 915.229004,596.754272 925.132080,602.361023 
	C932.843323,606.726929 941.463257,609.488037 950.507751,613.000061 
M278.962830,523.451050 
	C274.153473,521.303833 269.515808,517.957458 264.501801,517.239563 
	C250.751907,515.270874 236.846527,514.151794 223.492294,519.981201 
	C214.544876,523.886841 206.806625,529.290283 200.978867,537.227783 
	C193.027740,548.057251 189.304062,559.996277 189.818314,573.609924 
	C190.134720,581.985840 192.040909,589.695312 196.259567,596.602112 
	C208.675903,616.930420 226.006485,621.705322 248.829300,618.017822 
	C252.163101,617.479187 255.450226,616.651611 258.758942,615.957764 
	C258.914978,616.284790 259.070984,616.611877 259.227020,616.938965 
	C241.116913,639.627869 223.006805,662.316833 204.494995,685.509033 
	C206.347733,686.086548 207.805374,686.911072 209.277328,686.937439 
	C216.771393,687.071594 224.303986,687.440186 231.753983,686.851746 
	C237.170563,686.423889 242.739410,685.111572 246.294968,680.180176 
	C250.920456,673.764709 255.505310,667.318176 260.003754,660.813232 
	C269.818329,646.620789 279.501862,632.337280 289.365570,618.179260 
	C296.173492,608.407349 300.438690,597.428162 302.760590,586.015625 
	C304.966522,575.173096 304.522125,564.143555 301.190948,553.125671 
	C297.391876,540.560120 290.446320,530.934082 278.962830,523.451050 
M808.402161,664.000000 
	C801.088806,664.000000 793.775513,664.000000 786.695251,664.000000 
	C786.806885,661.792847 786.987061,659.884460 786.987793,657.976074 
	C787.003601,613.313660 787.000000,568.651184 786.999939,523.988770 
	C786.999939,522.988831 787.076904,521.981567 786.982910,520.990479 
	C786.746033,518.494263 785.983154,516.810791 782.817383,516.931396 
	C776.660278,517.165955 770.480896,516.838806 764.326172,517.103271 
	C762.595642,517.177612 760.619812,518.152100 759.266663,519.309998 
	C751.262085,526.159668 743.368835,533.141418 735.513855,540.163452 
	C727.192505,547.602417 718.955627,555.135925 710.546021,562.751160 
	C713.325073,566.708984 715.581787,570.464844 718.367249,573.776001 
	C724.030701,580.508423 728.010376,580.899780 734.997620,575.467712 
	C742.250427,569.829285 749.313904,563.947205 756.999512,557.735840 
	C756.999512,592.503357 756.971313,626.455627 757.042542,660.407654 
	C757.049744,663.857422 755.153381,664.045532 752.540771,664.027283 
	C742.773132,663.958862 733.004700,663.999939 723.000000,663.999939 
	C723.000000,667.018982 722.952820,669.494629 723.010193,671.967773 
	C723.117676,676.604187 721.509888,683.413757 723.866577,685.338135 
	C726.991394,687.889832 733.231384,686.925781 738.135193,686.949036 
	C761.965698,687.061951 785.797119,687.006042 809.628174,686.995911 
	C815.875549,686.993225 816.978333,685.857239 816.998596,679.540405 
	C817.007202,676.874023 817.000366,674.207581 816.999878,671.541199 
	C816.998535,664.000427 816.998413,664.000427 808.402161,664.000000 
M581.517517,627.987000 
	C583.610535,623.845520 585.788879,619.744629 587.779602,615.554504 
	C592.521484,605.573975 597.112488,595.521667 601.878479,585.552795 
	C608.639160,571.411682 615.882019,557.486145 622.174072,543.141785 
	C625.734497,535.025085 627.760864,526.251099 624.703613,517.195312 
	C585.767700,517.195312 547.003235,517.195312 507.954041,517.195312 
	C507.623505,520.083313 507.185913,522.800415 507.034760,525.533386 
	C506.878601,528.356628 506.791046,531.213928 507.042175,534.023438 
	C507.677734,541.133728 510.975952,543.999146 518.173889,543.999512 
	C542.943726,544.000854 567.713562,544.000000 592.109070,544.000000 
	C568.340881,591.190979 544.592102,638.343506 520.085815,687.000000 
	C527.481995,687.000000 533.688538,687.129944 539.887329,686.966431 
	C547.300598,686.770874 554.098511,685.353882 557.317566,677.320557 
	C558.500549,674.368286 560.261597,671.652771 561.653625,668.778259 
	C568.134827,655.394775 574.579163,641.993469 581.517517,627.987000 
M423.985382,663.028748 
	C423.240601,661.795044 422.608429,660.474121 421.732330,659.342041 
	C416.891510,653.086609 410.653381,649.441833 402.632629,651.114990 
	C396.137451,652.469849 391.536774,656.714722 389.369812,663.131653 
	C385.121338,675.712524 393.174072,686.190369 402.642242,687.892639 
	C417.788452,690.615662 428.011719,676.819763 423.985382,663.028748 
z"/>
<path fill="#FFFFFF" opacity="1.000000" stroke="none" 
	d="
M950.093567,612.981201 
	C941.463257,609.488037 932.843323,606.726929 925.132080,602.361023 
	C915.229004,596.754272 909.545105,587.807739 906.783203,576.391235 
	C903.899902,564.473145 905.856445,553.772705 910.959717,543.140686 
	C916.751770,531.073547 926.621399,523.816101 938.728455,518.967590 
	C949.513184,514.648682 960.805664,515.542542 971.838379,516.207764 
	C985.490417,517.030823 997.656433,522.698364 1008.003052,531.737427 
	C1009.070557,532.670044 1009.462341,535.584351 1008.846863,537.008179 
	C1007.013000,541.250427 1004.509094,545.201721 1002.288757,549.278564 
	C999.725647,553.984741 995.711975,555.341919 990.872559,552.976685 
	C985.265503,550.236206 979.881409,546.949158 974.091003,544.694275 
	C964.314819,540.887329 954.600769,541.830200 945.103577,546.338196 
	C936.660950,550.345581 930.723694,567.286560 942.239929,574.566711 
	C948.125732,578.287415 954.500671,581.482117 961.034058,583.880859 
	C976.075745,589.403503 992.148743,592.773804 1003.648132,605.210938 
	C1009.529541,611.571899 1012.568848,619.231445 1013.032288,627.969055 
	C1013.720032,640.936462 1011.969849,653.269348 1004.334045,664.196472 
	C996.484314,675.429626 985.906677,682.806030 972.567993,685.965759 
	C947.791931,691.834717 925.447021,685.964417 905.030334,671.468689 
	C902.746826,669.847473 900.877686,667.642822 898.726929,665.624878 
	C901.617249,660.800598 904.194519,656.208435 907.052063,651.797791 
	C911.217102,645.368958 916.405579,644.468445 922.939087,648.348572 
	C929.249695,652.096375 935.530457,656.055237 942.253418,658.911438 
	C953.278687,663.595276 972.949890,661.089050 979.337219,650.359009 
	C986.154968,638.905945 981.281433,623.385620 968.738831,619.026978 
	C962.693665,616.926270 956.586731,615.003418 950.093567,612.981201 
z"/>
<path fill="#FFFFFF" opacity="1.000000" stroke="none" 
	d="
M279.243469,523.704468 
	C290.446320,530.934082 297.391876,540.560120 301.190948,553.125671 
	C304.522125,564.143555 304.966522,575.173096 302.760590,586.015625 
	C300.438690,597.428162 296.173492,608.407349 289.365570,618.179260 
	C279.501862,632.337280 269.818329,646.620789 260.003754,660.813232 
	C255.505310,667.318176 250.920456,673.764709 246.294968,680.180176 
	C242.739410,685.111572 237.170563,686.423889 231.753983,686.851746 
	C224.303986,687.440186 216.771393,687.071594 209.277328,686.937439 
	C207.805374,686.911072 206.347733,686.086548 204.494995,685.509033 
	C223.006805,662.316833 241.116913,639.627869 259.227020,616.938965 
	C259.070984,616.611877 258.914978,616.284790 258.758942,615.957764 
	C255.450226,616.651611 252.163101,617.479187 248.829300,618.017822 
	C226.006485,621.705322 208.675903,616.930420 196.259567,596.602112 
	C192.040909,589.695312 190.134720,581.985840 189.818314,573.609924 
	C189.304062,559.996277 193.027740,548.057251 200.978867,537.227783 
	C206.806625,529.290283 214.544876,523.886841 223.492294,519.981201 
	C236.846527,514.151794 250.751907,515.270874 264.501801,517.239563 
	C269.515808,517.957458 274.153473,521.303833 279.243469,523.704468 
M228.034088,590.552124 
	C232.547104,592.429077 236.905701,594.975647 241.601822,596.058655 
	C256.298126,599.447937 271.874664,591.572632 274.748444,574.559143 
	C277.246765,559.768494 271.962708,543.251465 252.213104,540.223267 
	C243.535660,538.892761 234.823044,540.242371 228.039215,546.554871 
	C217.049835,556.780762 217.097397,581.328308 228.034088,590.552124 
z"/>
<path fill="#FFFFFF" opacity="1.000000" stroke="none" 
	d="
M808.887390,664.000000 
	C816.998413,664.000427 816.998535,664.000427 816.999878,671.541199 
	C817.000366,674.207581 817.007202,676.874023 816.998596,679.540405 
	C816.978333,685.857239 815.875549,686.993225 809.628174,686.995911 
	C785.797119,687.006042 761.965698,687.061951 738.135193,686.949036 
	C733.231384,686.925781 726.991394,687.889832 723.866577,685.338135 
	C721.509888,683.413757 723.117676,676.604187 723.010193,671.967773 
	C722.952820,669.494629 723.000000,667.018982 723.000000,663.999939 
	C733.004700,663.999939 742.773132,663.958862 752.540771,664.027283 
	C755.153381,664.045532 757.049744,663.857422 757.042542,660.407654 
	C756.971313,626.455627 756.999512,592.503357 756.999512,557.735840 
	C749.313904,563.947205 742.250427,569.829285 734.997620,575.467712 
	C728.010376,580.899780 724.030701,580.508423 718.367249,573.776001 
	C715.581787,570.464844 713.325073,566.708984 710.546021,562.751160 
	C718.955627,555.135925 727.192505,547.602417 735.513855,540.163452 
	C743.368835,533.141418 751.262085,526.159668 759.266663,519.309998 
	C760.619812,518.152100 762.595642,517.177612 764.326172,517.103271 
	C770.480896,516.838806 776.660278,517.165955 782.817383,516.931396 
	C785.983154,516.810791 786.746033,518.494263 786.982910,520.990479 
	C787.076904,521.981567 786.999939,522.988831 786.999939,523.988770 
	C787.000000,568.651184 787.003601,613.313660 786.987793,657.976074 
	C786.987061,659.884460 786.806885,661.792847 786.695251,664.000000 
	C793.775513,664.000000 801.088806,664.000000 808.887390,664.000000 
z"/>
<path fill="#FFFFFF" opacity="1.000000" stroke="none" 
	d="
M581.277100,628.292725 
	C574.579163,641.993469 568.134827,655.394775 561.653625,668.778259 
	C560.261597,671.652771 558.500549,674.368286 557.317566,677.320557 
	C554.098511,685.353882 547.300598,686.770874 539.887329,686.966431 
	C533.688538,687.129944 527.481995,687.000000 520.085815,687.000000 
	C544.592102,638.343506 568.340881,591.190979 592.109070,544.000000 
	C567.713562,544.000000 542.943726,544.000854 518.173889,543.999512 
	C510.975952,543.999146 507.677734,541.133728 507.042175,534.023438 
	C506.791046,531.213928 506.878601,528.356628 507.034760,525.533386 
	C507.185913,522.800415 507.623505,520.083313 507.954041,517.195312 
	C547.003235,517.195312 585.767700,517.195312 624.703613,517.195312 
	C627.760864,526.251099 625.734497,535.025085 622.174072,543.141785 
	C615.882019,557.486145 608.639160,571.411682 601.878479,585.552795 
	C597.112488,595.521667 592.521484,605.573975 587.779602,615.554504 
	C585.788879,619.744629 583.610535,623.845520 581.277100,628.292725 
z"/>
<path fill="#FFFFFF" opacity="1.000000" stroke="none" 
	d="
M423.992371,663.439331 
	C428.011719,676.819763 417.788452,690.615662 402.642242,687.892639 
	C393.174072,686.190369 385.121338,675.712524 389.369812,663.131653 
	C391.536774,656.714722 396.137451,652.469849 402.632629,651.114990 
	C410.653381,649.441833 416.891510,653.086609 421.732330,659.342041 
	C422.608429,660.474121 423.240601,661.795044 423.992371,663.439331 
z"/>
<path fill="#000000" opacity="1.000000" stroke="none" 
	d="
M227.778320,590.282959 
	C217.097397,581.328308 217.049835,556.780762 228.039215,546.554871 
	C234.823044,540.242371 243.535660,538.892761 252.213104,540.223267 
	C271.962708,543.251465 277.246765,559.768494 274.748444,574.559143 
	C271.874664,591.572632 256.298126,599.447937 241.601822,596.058655 
	C236.905701,594.975647 232.547104,592.429077 227.778320,590.282959 
z"/>
</svg>