<svg xmlns="http://www.w3.org/2000/svg" width="100%" viewBox="0 0 1200 1200" height="150" xmlns:v="https://vecta.io/nano"><path d="M1099 1201H1V1h1200v1200h-102M950.508 613l18.231 6.027c12.543 4.359 17.416 19.879 10.598 31.332-6.387 10.73-26.059 13.236-37.084 8.552-6.723-2.856-13.004-6.815-19.314-10.563-6.534-3.88-11.722-2.98-15.887 3.449-2.858 4.411-5.435 9.003-8.325 13.827 2.151 2.018 4.02 4.223 6.303 5.844 20.417 14.496 42.762 20.366 67.538 14.497 13.339-3.16 23.916-10.536 31.766-21.769 7.636-10.927 9.386-23.26 8.698-36.227-.463-8.738-3.503-16.397-9.384-22.758-11.499-12.437-27.572-15.807-42.614-21.33-6.533-2.399-12.908-5.593-18.794-9.314-11.516-7.28-5.579-24.221 2.864-28.229 9.497-4.508 19.211-5.451 28.987-1.644 5.79 2.255 11.174 5.542 16.782 8.282 4.839 2.365 8.853 1.008 11.416-3.698 2.22-4.077 4.724-8.028 6.558-12.27.615-1.424.224-4.338-.844-5.271-10.347-9.039-22.513-14.707-36.165-15.53-11.033-.665-22.325-1.559-33.11 2.76-12.107 4.849-21.977 12.106-27.769 24.173-5.103 10.632-7.06 21.332-4.177 33.251 2.762 11.417 8.446 20.363 18.349 25.97 7.711 4.366 16.331 7.127 25.376 10.639m-671.545-89.549c-4.809-2.147-9.447-5.494-14.461-6.211-13.75-1.969-27.655-3.088-41.01 2.742-8.947 3.906-16.686 9.309-22.513 17.247-7.951 10.829-11.675 22.768-11.161 36.382.316 8.376 2.223 16.085 6.441 22.992 12.416 20.328 29.747 25.103 52.57 21.416 3.334-.539 6.621-1.366 9.93-2.06l.468.981-54.732 68.57c1.853.578 3.31 1.402 4.782 1.428 7.494.134 15.027.503 22.477-.086 5.417-.428 10.985-1.74 14.541-6.672l13.709-19.367 29.362-42.634c6.808-9.772 11.073-20.751 13.395-32.164 2.206-10.843 1.762-21.872-1.57-32.89-3.799-12.566-10.745-22.192-22.228-29.675M808.402 664h-21.707c.112-2.207.292-4.116.293-6.024L787 523.989c0-1 .077-2.007-.017-2.998-.237-2.496-1-4.18-4.166-4.059-6.157.235-12.336-.093-18.491.172-1.731.074-3.706 1.049-5.06 2.207l-23.753 20.853-24.968 22.588c2.779 3.958 5.036 7.714 7.821 11.025 5.663 6.732 9.643 7.124 16.63 1.692 7.253-5.638 14.316-11.521 22.002-17.732l.043 102.672c.007 3.45-1.889 3.638-4.502 3.62L723 664l.01 7.968c.107 4.636-1.5 11.446.856 13.37 3.125 2.552 9.365 1.588 14.269 1.611l71.493.047c6.247-.003 7.35-1.139 7.37-7.456l.001-7.999c-.001-7.541-.001-7.541-8.598-7.541m-226.885-36.013l6.262-12.432 14.099-30.002c6.761-14.141 14.004-28.067 20.296-42.411 3.56-8.117 5.587-16.891 2.53-25.946h-116.75c-.331 2.888-.768 5.605-.919 8.338-.156 2.823-.244 5.681.007 8.49.636 7.11 3.934 9.976 11.132 9.976h73.935l-72.023 143 19.802-.034c7.413-.196 14.211-1.613 17.43-9.646 1.183-2.952 2.944-5.668 4.336-8.542l19.864-40.791m-157.532 35.042c-.745-1.234-1.377-2.555-2.253-3.687-4.841-6.255-11.079-9.9-19.1-8.227-6.495 1.355-11.096 5.6-13.263 12.017-4.248 12.581 3.804 23.059 13.272 24.761 15.146 2.723 25.369-11.073 21.343-24.864z"/><path d="M950.094 612.981c-8.63-3.493-17.25-6.254-24.961-10.62-9.903-5.607-15.587-14.553-18.349-25.97-2.883-11.918-.927-22.619 4.177-33.251 5.792-12.067 15.662-19.325 27.769-24.173 10.785-4.319 22.077-3.425 33.11-2.76 13.652.823 25.818 6.491 36.165 15.53 1.068.933 1.459 3.847.844 5.271-1.834 4.242-4.338 8.194-6.558 12.27-2.563 4.706-6.577 6.063-11.416 3.698-5.607-2.74-10.991-6.028-16.782-8.282-9.776-3.807-19.49-2.864-28.987 1.644-8.443 4.007-14.38 20.948-2.864 28.229 5.886 3.721 12.261 6.915 18.794 9.314 15.042 5.523 31.115 8.893 42.614 21.33 5.881 6.361 8.921 14.021 9.384 22.758.688 12.967-1.062 25.3-8.698 36.227-7.85 11.233-18.427 18.61-31.766 21.769-24.776 5.869-47.121-.001-67.538-14.497-2.284-1.621-4.153-3.826-6.303-5.844 2.89-4.824 5.468-9.416 8.325-13.827 4.165-6.429 9.354-7.329 15.887-3.449 6.311 3.748 12.591 7.707 19.314 10.563 11.025 4.684 30.696 2.178 37.084-8.552 6.818-11.453 1.944-26.973-10.598-31.332-6.045-2.101-12.152-4.024-18.645-6.046zm-670.851-89.277c11.203 7.23 18.148 16.856 21.947 29.421 3.331 11.018 3.776 22.047 1.57 32.89-2.322 11.413-6.587 22.392-13.395 32.164l-29.362 42.634-13.709 19.367c-3.556 4.931-9.124 6.244-14.541 6.672-7.45.588-14.983.22-22.477.086-1.472-.026-2.93-.851-4.782-1.428l54.732-68.57-.468-.981c-3.309.694-6.596 1.521-9.93 2.06-22.823 3.688-40.153-1.087-52.57-21.416-4.219-6.907-6.125-14.616-6.441-22.992-.514-13.614 3.209-25.553 11.161-36.382 5.828-7.937 13.566-13.341 22.513-17.247 13.354-5.829 27.26-4.71 41.01-2.742 5.014.718 9.652 4.064 14.742 6.465m-51.209 66.848c4.513 1.877 8.872 4.424 13.568 5.507 14.696 3.389 30.273-4.486 33.147-21.5 2.498-14.791-2.786-31.308-22.535-34.336-8.677-1.331-17.39.019-24.174 6.332-10.989 10.226-10.942 34.773-.005 43.997zM808.887 664c8.111 0 8.111 0 8.112 7.541l-.001 7.999c-.02 6.317-1.123 7.453-7.37 7.456-23.831.01-47.662.066-71.493-.047-4.904-.023-11.144.941-14.269-1.611-2.357-1.924-.749-8.734-.856-13.37-.057-2.473-.01-4.949-.01-7.968l29.541.027c2.613.018 4.509-.17 4.502-3.62L757 557.736l-22.002 17.732c-6.987 5.432-10.967 5.041-16.63-1.692-2.785-3.311-5.042-7.067-7.821-11.025l24.968-22.588 23.753-20.853c1.353-1.158 3.329-2.132 5.06-2.207 6.155-.264 12.334.063 18.491-.172 3.166-.121 3.929 1.563 4.166 4.059.094.991.017 1.998.017 2.998l-.012 133.987c-.001 1.908-.181 3.817-.293 6.024h22.192zm-227.61-35.707l-19.623 40.486-4.336 8.542c-3.219 8.033-10.017 9.45-17.43 9.646-6.199.164-12.405.034-19.802.034l72.023-143h-73.935c-7.198 0-10.496-2.866-11.132-9.976-.251-2.81-.164-5.667-.007-8.49.151-2.733.589-5.45.919-8.338h116.75c3.057 9.056 1.031 17.83-2.53 25.946-6.292 14.344-13.535 28.27-20.296 42.411l-14.099 30.002c-1.991 4.19-4.169 8.291-6.503 12.738zm-157.285 35.146c4.019 13.38-6.204 27.176-21.35 24.453-9.468-1.702-17.521-12.18-13.272-24.761 2.167-6.417 6.768-10.662 13.263-12.017 8.021-1.673 14.259 1.972 19.1 8.227.876 1.132 1.508 2.453 2.26 4.097z" fill="#fff"/><path d="M227.778 590.283c-10.681-8.955-10.728-33.502.261-43.728 6.784-6.312 15.496-7.662 24.174-6.332 19.75 3.028 25.034 19.545 22.535 34.336-2.874 17.013-18.45 24.889-33.147 21.5-4.696-1.083-9.055-3.63-13.824-5.776z"/></svg>