<?xml version="1.0" standalone="no"?>
<!DOCTYPE svg PUBLIC "-//W3C//DTD SVG 20010904//EN"
 "http://www.w3.org/TR/2001/REC-SVG-20010904/DTD/svg10.dtd">
<svg version="1.0" xmlns="http://www.w3.org/2000/svg"
 width="720.000000pt" height="478.000000pt" viewBox="0 0 720.000000 478.000000"
 preserveAspectRatio="xMidYMid meet">
<metadata>
Created by potrace 1.16, written by Peter Selinger 2001-2019
</metadata>
<g transform="translate(0.000000,478.000000) scale(0.100000,-0.100000)"
fill="#000000" stroke="none">
<path d="M2774 4419 c-29 -8 -44 -21 -98 -81 -31 -35 -42 -140 -22 -218 l15
-55 -6 85 c-5 94 8 149 52 206 57 74 196 80 262 11 29 -30 81 -130 98 -187 14
-47 44 -86 83 -108 22 -12 45 -29 52 -37 11 -13 7 -15 -31 -15 -53 0 -74 -12
-65 -35 4 -12 14 -15 33 -11 91 17 110 17 127 0 21 -20 16 -38 -10 -41 -135
-14 -134 -13 -134 -38 0 -21 -4 -24 -27 -20 -16 2 -57 7 -93 10 -36 3 -93 14
-127 24 -41 12 -77 17 -109 13 l-47 -5 7 44 c4 24 8 44 9 45 1 1 25 13 52 28
l50 26 -50 -6 c-27 -4 -53 -10 -58 -13 -4 -4 -11 -34 -15 -67 -5 -42 -11 -59
-22 -59 -11 0 -16 15 -18 63 -3 74 -22 75 -22 2 0 -46 -2 -50 -27 -56 -45 -9
-137 -34 -153 -41 -8 -3 -18 -5 -22 -5 -5 1 -8 -2 -8 -8 0 -6 -3 -9 -7 -8 -13
4 -73 -24 -73 -33 0 -5 -4 -8 -9 -7 -8 3 -71 -45 -113 -84 -10 -10 -23 -18
-30 -18 -6 0 -9 -3 -6 -6 4 -3 -19 -30 -49 -61 -53 -52 -56 -54 -84 -43 -16 7
-29 16 -29 21 0 5 -14 16 -30 24 -41 21 -136 17 -172 -7 -14 -10 -30 -18 -35
-18 -4 0 -16 -14 -25 -30 -9 -17 -24 -30 -32 -30 -22 0 -35 -29 -37 -83 -2
-26 -6 -47 -11 -47 -4 0 -8 -6 -8 -12 0 -7 -9 -24 -20 -38 -11 -14 -20 -32
-20 -40 0 -10 7 -7 19 10 11 13 17 28 15 32 -3 4 -1 8 5 8 5 0 21 31 35 69 29
75 81 143 129 167 64 34 154 16 212 -42 l27 -27 26 27 c45 45 116 106 124 106
4 0 -8 -32 -27 -72 -19 -40 -35 -78 -35 -85 0 -8 -12 -18 -26 -23 -35 -14 -37
-13 -31 10 3 11 2 18 -3 15 -4 -3 -10 -15 -12 -28 -4 -21 -1 -23 34 -20 21 2
38 1 38 0 0 -10 -32 -66 -43 -75 -6 -5 -30 -9 -52 -9 -38 0 -119 -34 -121 -51
0 -4 -10 -38 -23 -77 -12 -38 -26 -117 -32 -175 -12 -124 -14 -134 -35 -126
-8 3 -12 2 -9 -3 3 -5 1 -12 -4 -16 -6 -3 -8 -12 -5 -19 3 -8 1 -17 -5 -21 -6
-3 -11 -14 -11 -23 0 -14 2 -15 10 -2 5 8 11 12 13 10 2 -3 12 -52 21 -110 15
-90 21 -109 47 -135 16 -17 29 -38 29 -47 0 -20 -54 -66 -99 -85 -70 -29 -182
11 -216 77 -9 17 -20 28 -25 25 -6 -3 -7 1 -4 9 3 8 2 21 -2 28 -5 7 -9 20
-10 28 -5 31 -26 166 -29 180 -1 8 -3 -5 -4 -30 -1 -62 24 -202 45 -242 21
-41 88 -103 112 -103 4 0 21 -6 39 -13 28 -12 37 -11 94 12 65 26 79 26 79 -2
0 -9 7 -26 15 -36 14 -18 15 -17 15 21 0 23 5 45 10 48 6 3 10 0 10 -8 0 -14
28 -92 55 -152 11 -24 14 -26 15 -10 0 11 17 -18 38 -65 20 -47 59 -124 86
-170 97 -168 137 -242 133 -246 -2 -2 -23 30 -46 71 -24 42 -47 78 -52 81 -14
8 -11 -13 4 -28 7 -7 33 -49 57 -93 24 -44 56 -103 71 -131 85 -153 126 -346
95 -438 -9 -26 -16 -67 -16 -91 0 -45 1 -46 146 -189 107 -105 151 -142 165
-139 22 6 111 -35 104 -48 -3 -5 -97 -6 -213 -2 -313 9 -424 5 -439 -15 -24
-29 -14 -62 29 -107 24 -24 52 -61 63 -82 11 -21 31 -48 44 -60 13 -13 24 -33
25 -45 1 -17 14 -29 45 -45 25 -13 48 -28 51 -34 9 -13 20 13 20 44 0 16 -14
29 -53 50 -62 32 -123 91 -132 127 -5 21 -2 25 19 26 15 1 23 -3 20 -10 -7
-19 40 -81 61 -81 11 0 26 -4 33 -8 27 -18 160 -58 212 -64 l55 -6 -34 -12
c-29 -10 -31 -12 -17 -24 23 -20 20 -38 -9 -45 -14 -4 -23 -11 -20 -16 13 -21
-7 -31 -27 -14 -15 14 -18 26 -13 56 l7 38 -42 0 c-34 0 -41 -3 -36 -16 3 -9
6 -20 6 -25 0 -15 71 -89 80 -84 10 6 25 -14 17 -21 -7 -7 -67 24 -94 49 -13
11 -23 16 -23 10 0 -17 74 -61 139 -83 53 -17 66 -19 100 -8 l39 12 -47 16
c-41 13 -46 19 -49 48 -3 27 0 32 17 32 14 0 19 5 15 15 -5 12 0 14 27 9 19
-3 39 -7 46 -9 12 -4 25 19 16 29 -4 3 -24 6 -45 6 -21 0 -38 4 -38 9 0 13 92
6 119 -8 18 -10 21 -18 15 -49 -3 -20 -14 -44 -24 -52 -10 -8 -21 -32 -24 -52
-4 -24 -13 -39 -26 -43 -11 -4 -20 -11 -20 -17 0 -6 -17 -8 -42 -4 -24 3 -37
3 -30 0 6 -3 10 -9 8 -13 -3 -4 0 -8 7 -8 13 -1 48 -8 107 -22 24 -5 44 -4 62
5 23 12 26 19 25 58 -1 24 -6 42 -11 39 -4 -3 -5 14 -1 38 9 63 15 80 25 74 5
-3 10 0 12 6 4 12 219 18 261 6 19 -5 27 -4 22 3 -3 5 1 10 10 10 9 0 13 -5
10 -10 -4 -6 11 -11 37 -12 41 -1 112 -5 208 -12 25 -2 63 -6 85 -10 22 -4 87
-9 145 -11 58 -3 148 -7 200 -11 52 -3 114 -6 137 -7 23 -1 44 -5 47 -8 4 -3
66 -4 139 -2 72 2 126 0 120 -5 -7 -4 29 -6 81 -4 l93 4 8 -33 c5 -19 9 -50 9
-70 1 -31 -2 -36 -15 -28 -15 7 -17 2 -15 -49 1 -50 4 -58 27 -69 19 -9 35
-10 65 -1 25 6 71 8 129 3 50 -4 129 -8 177 -10 76 -1 85 0 68 12 -17 12 -18
17 -6 46 8 17 17 43 20 57 6 20 5 22 -4 10 -8 -11 -10 0 -8 46 l3 61 90 8 c50
5 100 8 112 9 11 1 19 4 16 9 -2 4 1 7 8 7 6 0 45 20 85 45 41 24 85 47 99 51
24 6 45 24 28 24 -4 0 -15 5 -23 10 -13 9 -11 13 10 29 33 26 23 33 -47 32
-32 0 -71 2 -88 6 l-30 6 25 8 c19 5 12 7 -25 7 -120 0 -284 21 -323 41 -30
15 -59 20 -111 20 -38 -1 -74 1 -78 4 -5 3 -44 8 -88 11 -124 10 -124 11 -54
64 34 26 82 59 107 73 43 26 46 26 88 12 24 -8 44 -18 44 -22 0 -13 49 -11 77
4 15 8 39 15 53 15 35 0 107 23 159 51 39 21 51 36 91 115 59 114 63 130 44
170 -15 32 -129 112 -141 100 -4 -3 -1 -6 5 -6 6 0 9 -6 7 -13 -3 -7 12 -19
39 -30 24 -10 52 -28 62 -40 19 -21 19 -21 -10 1 -16 12 -35 22 -43 22 -7 0
-24 6 -36 14 -12 8 -39 13 -59 12 -20 -2 -42 0 -48 4 -12 7 -3 40 11 40 5 0 9
5 9 10 0 14 -53 13 -85 -2 -30 -13 -31 -20 -7 -40 38 -34 242 -149 252 -143 6
4 16 19 23 33 l11 27 3 -25 c2 -15 -11 -55 -32 -98 -19 -39 -35 -75 -35 -79 0
-5 -12 -21 -26 -36 -20 -22 -29 -25 -39 -17 -11 9 -16 6 -25 -10 -8 -14 -19
-20 -34 -18 -13 1 -31 -3 -40 -11 -12 -11 -19 -11 -31 -1 -8 6 -22 9 -32 6
-29 -9 -52 17 -64 72 -6 29 -15 54 -20 58 -5 3 -9 11 -9 17 1 7 9 2 19 -10
l19 -23 0 23 c0 28 6 55 15 63 4 4 2 13 -3 19 -6 7 -11 30 -13 52 -2 36 -5 40
-29 41 -16 0 -28 -4 -28 -9 0 -24 -23 -4 -41 36 -23 51 -52 75 -92 75 -16 0
-26 4 -22 10 3 6 26 10 51 10 l44 0 0 93 c0 99 -23 251 -40 272 -6 8 -11 29
-11 47 6 368 5 362 27 402 13 26 31 43 50 49 16 6 31 13 34 16 3 4 22 17 43
29 31 18 54 22 117 22 73 0 80 2 99 26 12 15 21 21 21 13 0 -42 -53 -294 -111
-523 -16 -65 -34 -157 -39 -205 -5 -47 -12 -96 -15 -107 -5 -14 -2 -23 9 -27
23 -9 29 8 31 97 3 97 14 157 30 171 12 10 28 77 42 170 8 55 10 68 17 105 12
60 18 86 21 95 1 6 3 13 4 17 1 4 8 25 16 47 7 21 12 51 11 65 -2 15 -1 24 2
21 6 -6 31 80 31 105 0 8 -7 -1 -15 -20 l-14 -35 5 50 c20 221 17 322 -10 311
-20 -7 -25 18 -12 53 15 40 24 39 36 -1 13 -47 12 -11 -3 118 -8 70 -21 128
-34 155 -12 25 -24 60 -28 79 -9 50 -48 159 -72 200 -11 19 -25 60 -31 92 -19
104 -57 174 -150 271 -35 37 -81 72 -123 93 -37 19 -72 42 -77 53 -6 11 -45
47 -88 81 -75 61 -123 88 -203 115 -3 1 -18 8 -35 15 -21 10 -76 14 -180 14
-148 1 -151 1 -235 -33 -47 -19 -98 -45 -113 -58 -43 -35 -82 -37 -297 -17
-118 11 -143 18 -146 39 -2 11 -8 21 -13 23 -6 2 -11 11 -11 20 -1 10 -21 37
-45 62 -25 25 -45 48 -45 53 0 4 -8 7 -19 7 -22 0 -67 34 -82 62 -6 11 -13 35
-16 52 -12 73 -93 196 -150 225 -25 13 -124 13 -169 0z m1238 -501 c-5 -5 -36
-16 -68 -24 -60 -16 -114 -47 -114 -66 0 -15 52 -4 150 31 68 24 101 31 166
31 44 0 85 -5 90 -10 16 -16 125 -31 140 -19 8 7 14 7 19 -1 3 -5 15 -10 26
-10 12 0 17 -5 14 -10 -4 -6 -1 -18 6 -26 11 -14 15 -13 31 8 13 18 18 19 18
7 0 -33 -13 -78 -21 -73 -5 3 -9 -3 -9 -13 0 -10 -12 -38 -26 -63 l-25 -44 17
-63 c9 -35 14 -66 11 -70 -11 -10 -37 18 -37 41 0 17 -2 18 -10 6 -6 -9 -10
-11 -10 -3 0 7 -7 10 -15 7 -11 -5 -12 -10 -2 -25 6 -10 17 -19 24 -19 8 0 10
-12 6 -37 -5 -28 -3 -34 7 -28 10 6 12 4 7 -8 -11 -29 23 -7 39 26 12 22 18
26 24 17 7 -11 14 -11 33 -3 14 7 28 9 31 6 13 -14 5 -42 -15 -48 -11 -4 -24
-18 -29 -31 -9 -24 -30 -33 -30 -14 0 16 -14 12 -54 -15 -20 -14 -45 -26 -54
-26 -16 -1 -16 -2 1 -6 9 -2 17 -9 17 -14 0 -5 14 -9 30 -9 17 0 30 -4 30 -9
0 -5 -13 -12 -30 -16 -16 -4 -30 -10 -30 -14 0 -4 -15 -6 -32 -4 -18 2 -51 -5
-73 -15 l-40 -19 135 -8 c74 -4 140 -6 145 -5 6 1 12 1 15 0 3 -1 28 -3 55 -4
28 -2 66 -11 85 -21 19 -11 43 -18 53 -16 13 2 17 -5 17 -31 0 -26 3 -30 11
-18 6 9 8 53 3 118 -4 77 -3 102 6 102 8 0 11 11 8 30 -6 39 0 38 18 -5 18
-44 34 -45 35 -2 l1 32 14 -35 14 -35 -5 45 c-5 43 -4 44 10 20 8 -14 14 -35
15 -47 0 -33 17 -28 25 7 4 20 1 37 -9 52 -11 15 -16 18 -16 8 -1 -11 -3 -11
-11 3 -6 9 -14 15 -20 12 -5 -4 -9 -1 -9 4 0 6 -7 11 -16 11 -12 0 -15 -7 -12
-25 8 -39 -7 -38 -25 0 -20 43 -47 47 -48 8 l-1 -28 -8 28 c-5 15 -20 37 -33
47 -32 26 -40 57 -17 63 10 3 23 0 30 -7 13 -13 -22 72 -52 126 -12 21 -19 41
-15 45 4 3 33 -7 64 -22 70 -35 178 -141 215 -210 31 -60 44 -100 30 -91 -21
13 -30 -60 -11 -95 8 -15 14 -18 23 -9 11 8 17 2 30 -25 28 -59 30 -98 8 -156
-33 -87 -50 -114 -98 -159 -55 -50 -99 -70 -157 -70 -42 0 -45 -2 -63 -42 -56
-124 -206 -308 -307 -375 -69 -46 -161 -87 -180 -80 -6 2 32 25 84 51 108 55
122 65 82 59 l-28 -4 25 14 c18 10 29 11 39 3 11 -8 13 -8 8 0 -3 6 8 24 26
41 64 59 129 133 118 133 -7 0 -9 5 -5 12 5 7 -8 2 -27 -10 -37 -25 -115 -62
-130 -62 -14 0 -10 20 5 26 8 3 19 19 25 36 13 38 14 41 1 33 -6 -4 -9 9 -9
32 1 21 4 29 6 18 2 -12 13 -26 23 -33 23 -14 25 -6 5 28 -20 34 -19 39 8 32
20 -5 21 -4 8 12 -11 13 -12 19 -3 25 9 5 4 14 -14 30 -28 24 -58 25 -60 1 -3
-42 -5 -48 -20 -54 -24 -9 -26 -3 -8 33 15 30 15 33 -2 46 -23 16 -36 1 -27
-33 4 -17 2 -21 -10 -16 -17 6 -32 -12 -17 -21 17 -10 2 -24 -20 -18 -19 5
-25 19 -22 56 2 24 -45 13 -78 -20 -21 -20 -22 -23 -5 -17 18 6 17 4 -4 -19
-21 -24 -22 -27 -7 -27 12 0 16 -5 12 -15 -20 -50 -20 -48 2 -36 12 7 22 17
22 23 0 6 2 9 5 6 10 -9 -20 -53 -38 -56 -9 -2 -17 1 -17 7 0 5 -9 7 -19 4
-13 -3 -41 10 -78 36 -67 47 -104 52 -128 19 l-16 -23 -52 55 c-29 30 -65 71
-81 90 -23 28 -25 29 -11 6 10 -16 33 -49 51 -73 70 -91 1 -61 -98 43 -25 26
-43 55 -44 70 -1 17 2 21 10 15 7 -6 18 -6 26 -1 9 6 18 3 27 -8 8 -9 2 7 -12
36 -37 77 -74 183 -81 235 -6 44 -6 46 16 40 15 -4 26 -1 32 11 13 23 38 20
38 -5 0 -11 -4 -17 -10 -14 -6 4 -10 -6 -10 -23 0 -18 -6 -32 -16 -36 -20 -8
-9 -26 16 -26 13 0 22 -9 26 -25 3 -14 11 -22 16 -19 5 4 7 15 5 26 -3 11 0
21 9 25 22 8 17 36 -6 30 -29 -8 -34 25 -11 70 11 21 20 34 20 28 1 -5 -6 -22
-13 -37 -13 -25 -13 -29 2 -37 22 -13 48 3 56 33 6 23 10 24 57 21 36 -3 49
-1 46 8 -2 7 -18 11 -39 9 -33 -3 -35 -2 -30 26 2 16 -1 33 -7 36 -6 4 -11 11
-11 15 0 4 36 -6 80 -23 44 -17 80 -35 80 -39 0 -5 -6 -5 -12 -1 -10 6 -10 4
0 -8 10 -13 10 -17 0 -21 -10 -4 -10 -8 2 -17 12 -8 3 -10 -37 -7 -29 2 -53 2
-53 0 0 -8 57 -26 78 -24 13 2 28 -2 35 -7 7 -5 33 -12 58 -16 41 -6 47 -4 52
13 5 22 -19 64 -33 56 -5 -3 -11 -1 -15 5 -4 6 -10 8 -15 5 -13 -8 -50 26 -50
46 0 17 -26 34 -47 30 -6 -1 -14 8 -18 19 -5 15 -12 19 -26 15 -12 -4 -28 3
-46 20 -38 36 -85 64 -114 68 -15 3 -26 12 -29 28 l-6 23 -17 -24 -17 -24 0
22 c0 13 -4 20 -10 17 -6 -4 -10 5 -10 19 0 20 5 26 23 26 18 0 19 2 7 10 -12
8 -13 13 -3 29 11 17 10 22 -6 30 -24 13 -42 -7 -66 -72 -17 -45 -17 -49 0
-103 20 -65 25 -186 7 -192 -8 -2 -9 -9 -2 -22 8 -16 7 -18 -9 -15 -25 5 -37
-26 -22 -54 12 -22 4 -54 -11 -45 -5 3 -7 17 -4 29 5 19 2 22 -13 18 -25 -6
-31 20 -31 137 0 88 9 167 25 232 l7 28 -58 -20 c-123 -43 -242 -143 -290
-245 -41 -87 -31 -118 75 -217 56 -53 192 -148 212 -148 2 0 4 43 5 95 0 59 5
100 12 107 9 9 12 7 12 -9 0 -31 27 -50 50 -35 29 18 34 -14 8 -56 l-22 -36
-11 41 c-5 23 -16 48 -24 55 -11 11 -13 -1 -7 -75 10 -137 67 -285 157 -404
27 -35 56 -79 63 -97 28 -68 128 -120 281 -146 55 -10 84 -18 65 -19 -121 -3
-251 47 -349 135 -32 30 -64 54 -70 54 -6 0 -11 7 -11 16 0 9 -8 28 -19 42
-19 28 -65 138 -76 185 -4 15 -11 27 -16 27 -5 0 -7 -11 -3 -23 5 -23 3 -24
-68 -31 -97 -9 -334 -88 -382 -128 -43 -35 -44 -47 -9 -89 l27 -32 -44 24
c-65 35 -180 154 -210 217 -16 33 -30 50 -38 47 -7 -3 -10 0 -7 5 7 11 -25 70
-38 70 -4 0 -6 -4 -2 -10 3 -5 -15 -3 -41 5 -27 8 -55 10 -68 6 -43 -16 -127
-22 -167 -11 -51 14 -121 83 -175 172 -37 60 -38 66 -39 156 l0 94 -27 -33
c-15 -18 -35 -55 -44 -83 -15 -43 -15 -59 -5 -109 11 -54 10 -60 -11 -98 l-23
-41 -22 48 c-13 29 -23 69 -23 97 0 26 -4 47 -9 47 -5 0 -28 -15 -51 -32 -39
-30 -43 -38 -48 -88 -9 -81 -8 -151 2 -185 l9 -30 -23 20 c-16 13 -12 5 10
-22 18 -24 37 -43 41 -43 8 0 20 -41 13 -51 -7 -11 -63 20 -78 44 -8 12 -19
59 -26 104 -12 77 -11 85 11 145 24 64 73 119 263 297 32 30 72 75 90 100 18
25 55 64 83 86 137 108 177 137 218 158 25 12 45 28 45 35 0 7 10 16 23 21 13
5 29 16 36 25 16 19 157 95 231 124 30 12 77 26 104 31 40 7 51 6 66 -9 19
-19 151 -55 172 -47 7 3 0 6 -17 7 l-30 1 25 11 c14 5 54 8 90 5 l65 -5 -52
17 c-101 32 -92 33 207 16 155 -8 159 -9 129 -36 -13 -11 3 -3 36 19 85 56
123 74 180 87 54 12 102 8 87 -7z m644 -1377 c-1 -169 5 -291 15 -291 3 0 5
-16 4 -35 -1 -19 2 -35 7 -35 5 0 9 -21 10 -47 1 -74 0 -249 -2 -343 -1 -47 1
-110 5 -142 7 -55 6 -57 -30 -95 -35 -37 -36 -40 -31 -94 4 -33 0 -88 -9 -135
-8 -44 -12 -99 -9 -124 5 -41 2 -51 -33 -103 -61 -91 -135 -172 -174 -191 -38
-19 -99 -18 -150 2 -25 10 -143 7 -160 -4 -19 -11 -9 -53 14 -60 29 -9 34 -17
29 -58 -4 -32 -6 -33 -41 -31 -21 2 -61 6 -89 10 -88 12 -179 16 -402 18 -185
2 -220 5 -247 20 -18 10 -33 23 -33 29 0 7 -12 22 -27 33 -14 12 -27 30 -28
41 -3 33 -27 73 -48 80 -21 7 -130 101 -136 118 -2 6 -10 15 -17 19 -24 14
-15 23 23 25 48 4 53 8 53 43 0 21 -12 41 -45 75 -45 45 -50 45 -57 0 -10 -60
-58 26 -58 102 0 51 23 55 28 4 2 -17 10 -36 18 -42 12 -11 14 -6 14 26 -1 22
-4 58 -9 81 -8 43 -35 73 -225 248 -46 43 -75 78 -76 91 0 11 -8 45 -17 75 -9
30 -18 60 -19 66 -1 7 -21 51 -43 97 -23 47 -41 90 -41 95 0 6 -4 11 -10 11
-5 0 -7 8 -4 18 5 14 4 14 -4 2 -6 -8 -8 -19 -4 -25 4 -5 9 -23 11 -40 1 -16
16 -54 32 -82 38 -70 57 -122 75 -212 21 -101 57 -171 89 -171 18 0 24 -6 27
-27 2 -19 10 -29 28 -33 18 -5 24 -12 22 -26 -13 -73 -13 -88 -2 -110 8 -13
10 -27 7 -31 -4 -3 -7 0 -7 8 0 8 -10 23 -23 35 -38 35 -47 36 -30 3 9 -18 17
-53 18 -78 1 -25 6 -64 10 -87 6 -38 4 -43 -28 -73 -23 -22 -33 -39 -30 -52
10 -37 -26 -34 -68 7 -21 21 -39 34 -39 28 0 -5 4 -14 8 -19 5 -6 13 -22 20
-38 l12 -27 -39 20 c-22 11 -47 30 -55 42 -9 12 -16 19 -16 14 0 -5 -8 -2 -17
5 -12 10 -10 2 7 -28 13 -24 22 -45 19 -47 -2 -3 -27 11 -54 30 -28 19 -64 44
-82 55 -19 12 -34 32 -38 49 -9 39 4 100 19 94 7 -3 24 21 41 57 17 34 38 64
47 68 12 4 14 11 8 20 -7 13 -11 13 -26 0 -16 -13 -17 -10 -12 39 5 49 3 54
-18 63 -18 6 -24 16 -24 37 0 28 -24 79 -92 200 -89 158 -235 446 -252 497 -6
20 -6 20 11 -1 10 -11 25 -30 33 -43 l15 -23 55 22 c30 11 60 27 65 35 16 19
95 39 108 26 7 -7 16 -7 29 0 20 11 24 -1 6 -19 -10 -10 -2 -11 33 -6 41 6 47
4 52 -15 3 -11 10 -21 17 -21 6 0 9 4 5 10 -3 5 -7 39 -9 75 -2 36 -9 71 -15
78 -6 8 -15 45 -20 82 -11 78 -4 95 39 95 14 0 30 3 34 7 9 10 195 10 189 1
-2 -5 8 -8 24 -8 35 0 93 -35 93 -55 0 -24 39 -105 50 -105 6 0 10 -9 10 -19
0 -11 6 -26 13 -33 7 -7 21 -30 30 -50 10 -21 22 -38 27 -38 6 0 10 -4 10 -9
0 -15 55 -93 85 -121 26 -24 32 -25 138 -23 121 1 274 24 341 50 57 23 120 67
183 130 59 58 57 57 82 44 37 -20 180 -31 259 -20 81 11 129 33 247 112 70 47
179 156 215 214 20 33 28 38 41 30 14 -9 16 -31 15 -166z m-1056 -10 c0 -4
-11 -18 -25 -31 -21 -20 -37 -24 -122 -28 -109 -5 -173 12 -173 45 0 16 13 18
160 20 88 1 160 -1 160 -6z m1260 -2126 c23 -7 26 -39 10 -96 l-10 -37 -42 10
c-24 5 -50 7 -59 5 -31 -8 -50 12 -48 51 3 65 4 67 69 70 33 2 69 0 80 -3z"/>
<path d="M2630 1499 c-11 -8 -5 -9 25 -5 38 5 39 4 20 -10 -11 -9 -41 -27 -67
-40 -35 -18 -58 -40 -86 -84 -22 -33 -41 -57 -44 -54 -3 3 -9 -7 -12 -22 -9
-36 17 -64 60 -64 38 0 59 24 139 160 25 42 54 85 65 95 11 10 20 22 20 27 0
12 -102 10 -120 -3z"/>
</g>
</svg>
